<svg width="340" height="200" viewBox="0 0 340 200" xmlns="http://www.w3.org/2000/svg"><path d="M 86.000000 94.000000 L 86.000000 24.000000 A 70.000000 70.000000 0 1 1 17.394221 80.098667 Z" fill="#06D6A0" stroke="#ffffff" stroke-width="1"><title>LACI: 86 (78.2%)</title></path><path d="M 86.000000 94.000000 L 17.394221 80.098667 A 70.000000 70.000000 0 0 1 41.689128 39.810087 Z" fill="#59A14F" stroke="#ffffff" stroke-width="1"><title>MYLU: 12 (10.9%)</title></path><path d="M 86.000000 94.000000 L 41.689128 39.810087 A 70.000000 70.000000 0 0 1 74.063447 25.025231 Z" fill="#bbbbbb" stroke="#ffffff" stroke-width="1"><title>NOID: 9 (8.2%)</title></path><path d="M 86.000000 94.000000 L 74.063447 25.025231 A 70.000000 70.000000 0 0 1 78.020601 24.456279 Z" fill="#bbbbbb" stroke="#ffffff" stroke-width="1"><title>25K: 1 (0.9%)</title></path><path d="M 86.000000 94.000000 L 78.020601 24.456279 A 70.000000 70.000000 0 0 1 82.003783 24.114163 Z" fill="#8338EC" stroke="#ffffff" stroke-width="1"><title>LABO: 1 (0.9%)</title></path><path d="M 86.000000 94.000000 L 82.003783 24.114163 A 70.000000 70.000000 0 0 1 86.000000 24.000000 Z" fill="#E15759" stroke="#ffffff" stroke-width="1"><title>LANO: 1 (0.9%)</title></path><rect x="174.000000" y="46.000000" width="10" height="10" rx="2" fill="#06D6A0" stroke="#999999" stroke-width="0.5"/><text x="189.000000" y="55.000000" font-size="10" fill="#333333" font-family="sans-serif"><tspan font-weight="bold">LACI</tspan>  86 (78.2%)</text><rect x="174.000000" y="63.000000" width="10" height="10" rx="2" fill="#59A14F" stroke="#999999" stroke-width="0.5"/><text x="189.000000" y="72.000000" font-size="10" fill="#333333" font-family="sans-serif"><tspan font-weight="bold">MYLU</tspan>  12 (10.9%)</text><rect x="174.000000" y="80.000000" width="10" height="10" rx="2" fill="#bbbbbb" stroke="#999999" stroke-width="0.5"/><text x="189.000000" y="89.000000" font-size="10" fill="#333333" font-family="sans-serif"><tspan font-weight="bold">NOID</tspan>  9 (8.2%)</text><rect x="174.000000" y="97.000000" width="10" height="10" rx="2" fill="#bbbbbb" stroke="#999999" stroke-width="0.5"/><text x="189.000000" y="106.000000" font-size="10" fill="#333333" font-family="sans-serif"><tspan font-weight="bold">25K</tspan>  1 (0.9%)</text><rect x="174.000000" y="114.000000" width="10" height="10" rx="2" fill="#8338EC" stroke="#999999" stroke-width="0.5"/><text x="189.000000" y="123.000000" font-size="10" fill="#333333" font-family="sans-serif"><tspan font-weight="bold">LABO</tspan>  1 (0.9%)</text><rect x="174.000000" y="131.000000" width="10" height="10" rx="2" fill="#E15759" stroke="#999999" stroke-width="0.5"/><text x="189.000000" y="140.000000" font-size="10" fill="#333333" font-family="sans-serif"><tspan font-weight="bold">LANO</tspan>  1 (0.9%)</text><text x="86.000000" y="196.000000" font-size="11" font-weight="bold" fill="#2c3e50" text-anchor="middle" font-family="sans-serif">Total bats: 110</text></svg>
