<svg width="340" height="200" viewBox="0 0 340 200" xmlns="http://www.w3.org/2000/svg"><path d="M 86.000000 94.000000 L 86.000000 24.000000 A 70.000000 70.000000 0 1 1 19.426044 72.368810 Z" fill="#bbbbbb" stroke="#ffffff" stroke-width="1"><title>NOID: 100 (80.0%)</title></path><path d="M 86.000000 94.000000 L 19.426044 72.368810 A 70.000000 70.000000 0 0 1 30.959810 50.749827 Z" fill="#bbbbbb" stroke="#ffffff" stroke-width="1"><title>25K: 7 (5.6%)</title></path><path d="M 86.000000 94.000000 L 30.959810 50.749827 A 70.000000 70.000000 0 0 1 49.237776 34.430386 Z" fill="#bbbbbb" stroke="#ffffff" stroke-width="1"><title>40KMYO: 7 (5.6%)</title></path><path d="M 86.000000 94.000000 L 49.237776 34.430386 A 70.000000 70.000000 0 0 1 58.603843 29.583771 Z" fill="#bbbbbb" stroke="#ffffff" stroke-width="1"><title>EPFULANO: 3 (2.4%)</title></path><path d="M 86.000000 94.000000 L 58.603843 29.583771 A 70.000000 70.000000 0 0 1 68.591708 26.199179 Z" fill="#bbbbbb" stroke="#ffffff" stroke-width="1"><title>LABOMYLU: 3 (2.4%)</title></path><path d="M 86.000000 94.000000 L 68.591708 26.199179 A 70.000000 70.000000 0 0 1 75.484209 24.794378 Z" fill="#bbbbbb" stroke="#ffffff" stroke-width="1"><title>HIGHF: 2 (1.6%)</title></path><path d="M 86.000000 94.000000 L 75.484209 24.794378 A 70.000000 70.000000 0 0 1 82.482898 24.088413 Z" fill="#bbbbbb" stroke="#ffffff" stroke-width="1"><title>LOF: 2 (1.6%)</title></path><path d="M 86.000000 94.000000 L 82.482898 24.088413 A 70.000000 70.000000 0 0 1 86.000000 24.000000 Z" fill="#59A14F" stroke="#ffffff" stroke-width="1"><title>MYLU: 1 (0.8%)</title></path><rect x="174.000000" y="29.000000" width="10" height="10" rx="2" fill="#bbbbbb" stroke="#999999" stroke-width="0.5"/><text x="189.000000" y="38.000000" font-size="10" fill="#333333" font-family="sans-serif"><tspan font-weight="bold">NOID</tspan>  100 (80.0%)</text><rect x="174.000000" y="46.000000" width="10" height="10" rx="2" fill="#bbbbbb" stroke="#999999" stroke-width="0.5"/><text x="189.000000" y="55.000000" font-size="10" fill="#333333" font-family="sans-serif"><tspan font-weight="bold">25K</tspan>  7 (5.6%)</text><rect x="174.000000" y="63.000000" width="10" height="10" rx="2" fill="#bbbbbb" stroke="#999999" stroke-width="0.5"/><text x="189.000000" y="72.000000" font-size="10" fill="#333333" font-family="sans-serif"><tspan font-weight="bold">40KMYO</tspan>  7 (5.6%)</text><rect x="174.000000" y="80.000000" width="10" height="10" rx="2" fill="#bbbbbb" stroke="#999999" stroke-width="0.5"/><text x="189.000000" y="89.000000" font-size="10" fill="#333333" font-family="sans-serif"><tspan font-weight="bold">EPFULANO</tspan>  3 (2.4%)</text><rect x="174.000000" y="97.000000" width="10" height="10" rx="2" fill="#bbbbbb" stroke="#999999" stroke-width="0.5"/><text x="189.000000" y="106.000000" font-size="10" fill="#333333" font-family="sans-serif"><tspan font-weight="bold">LABOMYLU</tspan>  3 (2.4%)</text><rect x="174.000000" y="114.000000" width="10" height="10" rx="2" fill="#bbbbbb" stroke="#999999" stroke-width="0.5"/><text x="189.000000" y="123.000000" font-size="10" fill="#333333" font-family="sans-serif"><tspan font-weight="bold">HIGHF</tspan>  2 (1.6%)</text><rect x="174.000000" y="131.000000" width="10" height="10" rx="2" fill="#bbbbbb" stroke="#999999" stroke-width="0.5"/><text x="189.000000" y="140.000000" font-size="10" fill="#333333" font-family="sans-serif"><tspan font-weight="bold">LOF</tspan>  2 (1.6%)</text><rect x="174.000000" y="148.000000" width="10" height="10" rx="2" fill="#59A14F" stroke="#999999" stroke-width="0.5"/><text x="189.000000" y="157.000000" font-size="10" fill="#333333" font-family="sans-serif"><tspan font-weight="bold">MYLU</tspan>  1 (0.8%)</text><text x="86.000000" y="196.000000" font-size="11" font-weight="bold" fill="#2c3e50" text-anchor="middle" font-family="sans-serif">Total bats: 125</text></svg>
