<svg width="340" height="237" viewBox="0 0 340 237" xmlns="http://www.w3.org/2000/svg"><text x="170.000000" y="15" font-size="11" font-weight="bold" fill="#2c3e50" text-anchor="middle" font-family="sans-serif">Mean nightly detections by date</text><rect x="46.000000" y="26.000000" width="11" height="11" rx="2" fill="#00AD7F"/><text x="61.000000" y="35.000000" font-size="9" fill="#333" font-family="sans-serif">2020</text><rect x="110.000000" y="26.000000" width="11" height="11" rx="2" fill="#00ABB2"/><text x="125.000000" y="35.000000" font-size="9" fill="#333" font-family="sans-serif">2021</text><line x1="46.000000" y1="187.000000" x2="328.000000" y2="187.000000" stroke="#e6e6e6" stroke-width="1"/><text x="41.000000" y="190.000000" font-size="9" fill="#555" text-anchor="end" font-family="sans-serif">0</text><line x1="46.000000" y1="151.750000" x2="328.000000" y2="151.750000" stroke="#e6e6e6" stroke-width="1"/><text x="41.000000" y="154.750000" font-size="9" fill="#555" text-anchor="end" font-family="sans-serif">200</text><line x1="46.000000" y1="116.500000" x2="328.000000" y2="116.500000" stroke="#e6e6e6" stroke-width="1"/><text x="41.000000" y="119.500000" font-size="9" fill="#555" text-anchor="end" font-family="sans-serif">400</text><line x1="46.000000" y1="81.250000" x2="328.000000" y2="81.250000" stroke="#e6e6e6" stroke-width="1"/><text x="41.000000" y="84.250000" font-size="9" fill="#555" text-anchor="end" font-family="sans-serif">600</text><line x1="46.000000" y1="46.000000" x2="328.000000" y2="46.000000" stroke="#e6e6e6" stroke-width="1"/><text x="41.000000" y="49.000000" font-size="9" fill="#555" text-anchor="end" font-family="sans-serif">800</text><line x1="46.000000" y1="46.000000" x2="46.000000" y2="187.000000" stroke="#888" stroke-width="1"/><line x1="46.000000" y1="187.000000" x2="328.000000" y2="187.000000" stroke="#888" stroke-width="1"/><rect x="61.321161" y="177.658750" width="3.852321" height="9.341250" fill="#00ABB2"><title>Jul 16  2021: 53.0 (1 night)</title></rect><rect x="71.392589" y="174.133750" width="3.852321" height="12.866250" fill="#00ABB2"><title>Jul 17  2021: 73.0 (1 night)</title></rect><rect x="81.464018" y="177.658750" width="3.852321" height="9.341250" fill="#00ABB2"><title>Jul 18  2021: 53.0 (1 night)</title></rect><rect x="91.535446" y="165.850000" width="3.852321" height="21.150000" fill="#00ABB2"><title>Jul 19  2021: 120.0 (1 night)</title></rect><rect x="101.606875" y="75.610000" width="3.852321" height="111.390000" fill="#00ABB2"><title>Jul 20  2021: 632.0 (1 night)</title></rect><rect x="111.678304" y="169.375000" width="3.852321" height="17.625000" fill="#00ABB2"><title>Jul 21  2021: 100.0 (1 night)</title></rect><rect x="121.749732" y="182.417500" width="3.852321" height="4.582500" fill="#00ABB2"><title>Jul 22  2021: 26.0 (1 night)</title></rect><rect x="131.821161" y="175.896250" width="3.852321" height="11.103750" fill="#00ABB2"><title>Jul 23  2021: 63.0 (1 night)</title></rect><rect x="141.892589" y="167.436250" width="3.852321" height="19.563750" fill="#00ABB2"><title>Jul 24  2021: 111.0 (1 night)</title></rect><rect x="151.964018" y="180.126250" width="3.852321" height="6.873750" fill="#00ABB2"><title>Jul 25  2021: 39.0 (1 night)</title></rect><rect x="162.035446" y="153.160000" width="3.852321" height="33.840000" fill="#00ABB2"><title>Jul 26  2021: 192.0 (1 night)</title></rect><rect x="172.106875" y="175.720000" width="3.852321" height="11.280000" fill="#00ABB2"><title>Jul 27  2021: 64.0 (1 night)</title></rect><rect x="182.178304" y="167.965000" width="3.852321" height="19.035000" fill="#00ABB2"><title>Jul 28  2021: 108.0 (1 night)</title></rect><rect x="192.249732" y="174.310000" width="3.852321" height="12.690000" fill="#00ABB2"><title>Jul 29  2021: 72.0 (1 night)</title></rect><rect x="202.321161" y="172.195000" width="3.852321" height="14.805000" fill="#00ABB2"><title>Jul 30  2021: 84.0 (1 night)</title></rect><rect x="212.392589" y="166.378750" width="3.852321" height="20.621250" fill="#00ABB2"><title>Jul 31  2021: 117.0 (1 night)</title></rect><rect x="248.397946" y="145.052500" width="3.852321" height="41.947500" fill="#00AD7F"><title>Aug 04  2020: 238.0 (1 night)</title></rect><rect x="258.469375" y="137.121250" width="3.852321" height="49.878750" fill="#00AD7F"><title>Aug 05  2020: 283.0 (1 night)</title></rect><rect x="268.540804" y="128.837500" width="3.852321" height="58.162500" fill="#00AD7F"><title>Aug 06  2020: 330.0 (1 night)</title></rect><rect x="278.612232" y="166.378750" width="3.852321" height="20.621250" fill="#00AD7F"><title>Aug 07  2020: 117.0 (1 night)</title></rect><rect x="288.683661" y="177.658750" width="3.852321" height="9.341250" fill="#00AD7F"><title>Aug 08  2020: 53.0 (1 night)</title></rect><rect x="298.755089" y="140.117500" width="3.852321" height="46.882500" fill="#00AD7F"><title>Aug 09  2020: 266.0 (1 night)</title></rect><rect x="308.826518" y="165.673750" width="3.852321" height="21.326250" fill="#00AD7F"><title>Aug 10  2020: 121.0 (1 night)</title></rect><text x="61.107143" y="199.000000" font-size="9" fill="#555" text-anchor="end" font-family="sans-serif" transform="rotate(-40 61.107143 199.000000)">Jul 16</text><text x="91.321429" y="199.000000" font-size="9" fill="#555" text-anchor="end" font-family="sans-serif" transform="rotate(-40 91.321429 199.000000)">Jul 19</text><text x="121.535714" y="199.000000" font-size="9" fill="#555" text-anchor="end" font-family="sans-serif" transform="rotate(-40 121.535714 199.000000)">Jul 22</text><text x="151.750000" y="199.000000" font-size="9" fill="#555" text-anchor="end" font-family="sans-serif" transform="rotate(-40 151.750000 199.000000)">Jul 25</text><text x="192.035714" y="199.000000" font-size="9" fill="#555" text-anchor="end" font-family="sans-serif" transform="rotate(-40 192.035714 199.000000)">Jul 29</text><text x="252.464286" y="199.000000" font-size="9" fill="#555" text-anchor="end" font-family="sans-serif" transform="rotate(-40 252.464286 199.000000)">Aug 04</text><text x="282.678571" y="199.000000" font-size="9" fill="#555" text-anchor="end" font-family="sans-serif" transform="rotate(-40 282.678571 199.000000)">Aug 07</text><text x="312.892857" y="199.000000" font-size="9" fill="#555" text-anchor="end" font-family="sans-serif" transform="rotate(-40 312.892857 199.000000)">Aug 10</text><text x="11" y="116.500000" font-size="9" fill="#555" text-anchor="middle" font-family="sans-serif" transform="rotate(-90 11 116.500000)">Recordings / night</text></svg>
