<svg width="340" height="200" viewBox="0 0 340 200" xmlns="http://www.w3.org/2000/svg"><path d="M 86.000000 94.000000 L 86.000000 24.000000 A 70.000000 70.000000 0 0 1 107.715168 160.546611 Z" fill="#bbbbbb" stroke="#ffffff" stroke-width="1"><title>NOID: 112 (45.0%)</title></path><path d="M 86.000000 94.000000 L 107.715168 160.546611 A 70.000000 70.000000 0 0 1 18.559654 112.756326 Z" fill="#bbbbbb" stroke="#ffffff" stroke-width="1"><title>EPFULANO: 64 (25.7%)</title></path><path d="M 86.000000 94.000000 L 18.559654 112.756326 A 70.000000 70.000000 0 0 1 20.476868 69.368329 Z" fill="#E15759" stroke="#ffffff" stroke-width="1"><title>LANO: 25 (10.0%)</title></path><path d="M 86.000000 94.000000 L 20.476868 69.368329 A 70.000000 70.000000 0 0 1 36.658897 44.346646 Z" fill="#06D6A0" stroke="#ffffff" stroke-width="1"><title>LACI: 17 (6.8%)</title></path><path d="M 86.000000 94.000000 L 36.658897 44.346646 A 70.000000 70.000000 0 0 1 60.132772 28.954735 Z" fill="#bbbbbb" stroke="#ffffff" stroke-width="1"><title>LOF: 16 (6.4%)</title></path><path d="M 86.000000 94.000000 L 60.132772 28.954735 A 70.000000 70.000000 0 0 1 78.946562 24.356271 Z" fill="#bbbbbb" stroke="#ffffff" stroke-width="1"><title>25K: 11 (4.4%)</title></path><path d="M 86.000000 94.000000 L 78.946562 24.356271 A 70.000000 70.000000 0 0 1 82.468785 24.089124 Z" fill="#59A14F" stroke="#ffffff" stroke-width="1"><title>MYLU: 2 (0.8%)</title></path><path d="M 86.000000 94.000000 L 82.468785 24.089124 A 70.000000 70.000000 0 0 1 84.233830 24.022285 Z" fill="#bbbbbb" stroke="#ffffff" stroke-width="1"><title>40KMYO: 1 (0.4%)</title></path><path d="M 86.000000 94.000000 L 84.233830 24.022285 A 70.000000 70.000000 0 0 1 86.000000 24.000000 Z" fill="#bbbbbb" stroke="#ffffff" stroke-width="1"><title>HIGHF: 1 (0.4%)</title></path><rect x="174.000000" y="20.500000" width="10" height="10" rx="2" fill="#bbbbbb" stroke="#999999" stroke-width="0.5"/><text x="189.000000" y="29.500000" font-size="10" fill="#333333" font-family="sans-serif"><tspan font-weight="bold">NOID</tspan>  112 (45.0%)</text><rect x="174.000000" y="37.500000" width="10" height="10" rx="2" fill="#bbbbbb" stroke="#999999" stroke-width="0.5"/><text x="189.000000" y="46.500000" font-size="10" fill="#333333" font-family="sans-serif"><tspan font-weight="bold">EPFULANO</tspan>  64 (25.7%)</text><rect x="174.000000" y="54.500000" width="10" height="10" rx="2" fill="#E15759" stroke="#999999" stroke-width="0.5"/><text x="189.000000" y="63.500000" font-size="10" fill="#333333" font-family="sans-serif"><tspan font-weight="bold">LANO</tspan>  25 (10.0%)</text><rect x="174.000000" y="71.500000" width="10" height="10" rx="2" fill="#06D6A0" stroke="#999999" stroke-width="0.5"/><text x="189.000000" y="80.500000" font-size="10" fill="#333333" font-family="sans-serif"><tspan font-weight="bold">LACI</tspan>  17 (6.8%)</text><rect x="174.000000" y="88.500000" width="10" height="10" rx="2" fill="#bbbbbb" stroke="#999999" stroke-width="0.5"/><text x="189.000000" y="97.500000" font-size="10" fill="#333333" font-family="sans-serif"><tspan font-weight="bold">LOF</tspan>  16 (6.4%)</text><rect x="174.000000" y="105.500000" width="10" height="10" rx="2" fill="#bbbbbb" stroke="#999999" stroke-width="0.5"/><text x="189.000000" y="114.500000" font-size="10" fill="#333333" font-family="sans-serif"><tspan font-weight="bold">25K</tspan>  11 (4.4%)</text><rect x="174.000000" y="122.500000" width="10" height="10" rx="2" fill="#59A14F" stroke="#999999" stroke-width="0.5"/><text x="189.000000" y="131.500000" font-size="10" fill="#333333" font-family="sans-serif"><tspan font-weight="bold">MYLU</tspan>  2 (0.8%)</text><rect x="174.000000" y="139.500000" width="10" height="10" rx="2" fill="#bbbbbb" stroke="#999999" stroke-width="0.5"/><text x="189.000000" y="148.500000" font-size="10" fill="#333333" font-family="sans-serif"><tspan font-weight="bold">40KMYO</tspan>  1 (0.4%)</text><rect x="174.000000" y="156.500000" width="10" height="10" rx="2" fill="#bbbbbb" stroke="#999999" stroke-width="0.5"/><text x="189.000000" y="165.500000" font-size="10" fill="#333333" font-family="sans-serif"><tspan font-weight="bold">HIGHF</tspan>  1 (0.4%)</text><text x="86.000000" y="196.000000" font-size="11" font-weight="bold" fill="#2c3e50" text-anchor="middle" font-family="sans-serif">Total bats: 249</text></svg>
