<svg width="340" height="237" viewBox="0 0 340 237" xmlns="http://www.w3.org/2000/svg"><text x="170.000000" y="15" font-size="11" font-weight="bold" fill="#2c3e50" text-anchor="middle" font-family="sans-serif">Mean nightly detections by date</text><rect x="46.000000" y="26.000000" width="11" height="11" rx="2" fill="#E16A86"/><text x="61.000000" y="35.000000" font-size="9" fill="#333" font-family="sans-serif">2015</text><rect x="110.000000" y="26.000000" width="11" height="11" rx="2" fill="#B28D00"/><text x="125.000000" y="35.000000" font-size="9" fill="#333" font-family="sans-serif">2017</text><rect x="174.000000" y="26.000000" width="11" height="11" rx="2" fill="#829C00"/><text x="189.000000" y="35.000000" font-size="9" fill="#333" font-family="sans-serif">2018</text><rect x="238.000000" y="26.000000" width="11" height="11" rx="2" fill="#20A73C"/><text x="253.000000" y="35.000000" font-size="9" fill="#333" font-family="sans-serif">2019</text><rect x="46.000000" y="40.000000" width="11" height="11" rx="2" fill="#00AD7F"/><text x="61.000000" y="49.000000" font-size="9" fill="#333" font-family="sans-serif">2020</text><rect x="110.000000" y="40.000000" width="11" height="11" rx="2" fill="#00ABB2"/><text x="125.000000" y="49.000000" font-size="9" fill="#333" font-family="sans-serif">2021</text><rect x="174.000000" y="40.000000" width="11" height="11" rx="2" fill="#00A0D6"/><text x="189.000000" y="49.000000" font-size="9" fill="#333" font-family="sans-serif">2022</text><rect x="238.000000" y="40.000000" width="11" height="11" rx="2" fill="#7B8AE6"/><text x="253.000000" y="49.000000" font-size="9" fill="#333" font-family="sans-serif">2023</text><rect x="46.000000" y="54.000000" width="11" height="11" rx="2" fill="#C071DC"/><text x="61.000000" y="63.000000" font-size="9" fill="#333" font-family="sans-serif">2024</text><line x1="46.000000" y1="187.000000" x2="328.000000" y2="187.000000" stroke="#e6e6e6" stroke-width="1"/><text x="41.000000" y="190.000000" font-size="9" fill="#555" text-anchor="end" font-family="sans-serif">0</text><line x1="46.000000" y1="158.750000" x2="328.000000" y2="158.750000" stroke="#e6e6e6" stroke-width="1"/><text x="41.000000" y="161.750000" font-size="9" fill="#555" text-anchor="end" font-family="sans-serif">200</text><line x1="46.000000" y1="130.500000" x2="328.000000" y2="130.500000" stroke="#e6e6e6" stroke-width="1"/><text x="41.000000" y="133.500000" font-size="9" fill="#555" text-anchor="end" font-family="sans-serif">400</text><line x1="46.000000" y1="102.250000" x2="328.000000" y2="102.250000" stroke="#e6e6e6" stroke-width="1"/><text x="41.000000" y="105.250000" font-size="9" fill="#555" text-anchor="end" font-family="sans-serif">600</text><line x1="46.000000" y1="74.000000" x2="328.000000" y2="74.000000" stroke="#e6e6e6" stroke-width="1"/><text x="41.000000" y="77.000000" font-size="9" fill="#555" text-anchor="end" font-family="sans-serif">800</text><line x1="46.000000" y1="74.000000" x2="46.000000" y2="187.000000" stroke="#888" stroke-width="1"/><line x1="46.000000" y1="187.000000" x2="328.000000" y2="187.000000" stroke="#888" stroke-width="1"/><rect x="63.439389" y="181.915000" width="0.823146" height="5.085000" fill="#7B8AE6"><title>Jun 14  2023: 36.0 (1 night)</title></rect><rect x="64.353995" y="179.090000" width="0.823146" height="7.910000" fill="#C071DC"><title>Jun 14  2024: 56.0 (1 night)</title></rect><rect x="72.208848" y="186.435000" width="0.823146" height="0.565000" fill="#00A0D6"><title>Jun 15  2022: 4.0 (1 night)</title></rect><rect x="73.123455" y="185.163750" width="0.823146" height="1.836250" fill="#7B8AE6"><title>Jun 15  2023: 13.0 (1 night)</title></rect><rect x="74.038061" y="120.188750" width="0.823146" height="66.811250" fill="#C071DC"><title>Jun 15  2024: 473.0 (1 night)</title></rect><rect x="80.978308" y="186.717500" width="0.823146" height="0.282500" fill="#00ABB2"><title>Jun 16  2021: 2.0 (1 night)</title></rect><rect x="81.892914" y="185.305000" width="0.823146" height="1.695000" fill="#00A0D6"><title>Jun 16  2022: 12.0 (1 night)</title></rect><rect x="82.807521" y="185.022500" width="0.823146" height="1.977500" fill="#7B8AE6"><title>Jun 16  2023: 14.0 (1 night)</title></rect><rect x="83.722127" y="160.868750" width="0.823146" height="26.131250" fill="#C071DC"><title>Jun 16  2024: 185.0 (1 night)</title></rect><rect x="90.662374" y="187.000000" width="0.823146" height="0.000000" fill="#00ABB2"><title>Jun 17  2021: 0.0 (1 night)</title></rect><rect x="91.576980" y="186.858750" width="0.823146" height="0.141250" fill="#00A0D6"><title>Jun 17  2022: 1.0 (1 night)</title></rect><rect x="92.491587" y="186.717500" width="0.823146" height="0.282500" fill="#7B8AE6"><title>Jun 17  2023: 2.0 (1 night)</title></rect><rect x="93.406193" y="175.841250" width="0.823146" height="11.158750" fill="#C071DC"><title>Jun 17  2024: 79.0 (1 night)</title></rect><rect x="97.602621" y="186.435000" width="0.823146" height="0.565000" fill="#829C00"><title>Jun 18  2018: 4.0 (1 night)</title></rect><rect x="98.517228" y="172.027500" width="0.823146" height="14.972500" fill="#20A73C"><title>Jun 18  2019: 106.0 (1 night)</title></rect><rect x="99.431834" y="139.398750" width="0.823146" height="47.601250" fill="#00AD7F"><title>Jun 18  2020: 337.0 (1 night)</title></rect><rect x="100.346440" y="186.717500" width="0.823146" height="0.282500" fill="#00ABB2"><title>Jun 18  2021: 2.0 (1 night)</title></rect><rect x="101.261046" y="186.717500" width="0.823146" height="0.282500" fill="#00A0D6"><title>Jun 18  2022: 2.0 (1 night)</title></rect><rect x="102.175652" y="186.576250" width="0.823146" height="0.423750" fill="#7B8AE6"><title>Jun 18  2023: 3.0 (1 night)</title></rect><rect x="103.090259" y="163.552500" width="0.823146" height="23.447500" fill="#C071DC"><title>Jun 18  2024: 166.0 (1 night)</title></rect><rect x="107.286687" y="185.870000" width="0.823146" height="1.130000" fill="#829C00"><title>Jun 19  2018: 8.0 (1 night)</title></rect><rect x="108.201293" y="187.000000" width="0.823146" height="0.000000" fill="#20A73C"><title>Jun 19  2019: 0.0 (1 night)</title></rect><rect x="109.115900" y="141.376250" width="0.823146" height="45.623750" fill="#00AD7F"><title>Jun 19  2020: 323.0 (1 night)</title></rect><rect x="110.030506" y="187.000000" width="0.823146" height="0.000000" fill="#00ABB2"><title>Jun 19  2021: 0.0 (1 night)</title></rect><rect x="110.945112" y="185.587500" width="0.823146" height="1.412500" fill="#00A0D6"><title>Jun 19  2022: 10.0 (1 night)</title></rect><rect x="111.859718" y="186.858750" width="0.823146" height="0.141250" fill="#7B8AE6"><title>Jun 19  2023: 1.0 (1 night)</title></rect><rect x="112.774325" y="170.897500" width="0.823146" height="16.102500" fill="#C071DC"><title>Jun 19  2024: 114.0 (1 night)</title></rect><rect x="116.970753" y="170.191250" width="0.823146" height="16.808750" fill="#829C00"><title>Jun 20  2018: 119.0 (1 night)</title></rect><rect x="117.885359" y="187.000000" width="0.823146" height="0.000000" fill="#20A73C"><title>Jun 20  2019: 0.0 (1 night)</title></rect><rect x="118.799966" y="109.595000" width="0.823146" height="77.405000" fill="#00AD7F"><title>Jun 20  2020: 548.0 (1 night)</title></rect><rect x="119.714572" y="186.858750" width="0.823146" height="0.141250" fill="#00ABB2"><title>Jun 20  2021: 1.0 (1 night)</title></rect><rect x="120.629178" y="153.241250" width="0.823146" height="33.758750" fill="#00A0D6"><title>Jun 20  2022: 239.0 (1 night)</title></rect><rect x="121.543784" y="186.717500" width="0.823146" height="0.282500" fill="#7B8AE6"><title>Jun 20  2023: 2.0 (1 night)</title></rect><rect x="122.458391" y="176.406250" width="0.823146" height="10.593750" fill="#C071DC"><title>Jun 20  2024: 75.0 (1 night)</title></rect><rect x="126.654819" y="184.316250" width="0.823146" height="2.683750" fill="#829C00"><title>Jun 21  2018: 19.0 (1 night)</title></rect><rect x="127.569425" y="186.717500" width="0.823146" height="0.282500" fill="#20A73C"><title>Jun 21  2019: 2.0 (1 night)</title></rect><rect x="128.484032" y="133.325000" width="0.823146" height="53.675000" fill="#00AD7F"><title>Jun 21  2020: 380.0 (1 night)</title></rect><rect x="129.398638" y="186.858750" width="0.823146" height="0.141250" fill="#00ABB2"><title>Jun 21  2021: 1.0 (1 night)</title></rect><rect x="130.313244" y="186.011250" width="0.823146" height="0.988750" fill="#00A0D6"><title>Jun 21  2022: 7.0 (1 night)</title></rect><rect x="131.227850" y="158.043750" width="0.823146" height="28.956250" fill="#7B8AE6"><title>Jun 21  2023: 205.0 (1 night)</title></rect><rect x="132.142457" y="166.801250" width="0.823146" height="20.198750" fill="#C071DC"><title>Jun 21  2024: 143.0 (1 night)</title></rect><rect x="134.509673" y="185.728750" width="0.823146" height="1.271250" fill="#E16A86"><title>Jun 22  2015: 9.0 (1 night)</title></rect><rect x="135.424279" y="186.717500" width="0.823146" height="0.282500" fill="#B28D00"><title>Jun 22  2017: 2.0 (1 night)</title></rect><rect x="136.338885" y="185.022500" width="0.823146" height="1.977500" fill="#829C00"><title>Jun 22  2018: 14.0 (1 night)</title></rect><rect x="137.253491" y="186.858750" width="0.823146" height="0.141250" fill="#20A73C"><title>Jun 22  2019: 1.0 (1 night)</title></rect><rect x="138.168098" y="175.982500" width="0.823146" height="11.017500" fill="#00AD7F"><title>Jun 22  2020: 78.0 (1 night)</title></rect><rect x="139.082704" y="187.000000" width="0.823146" height="0.000000" fill="#00ABB2"><title>Jun 22  2021: 0.0 (1 night)</title></rect><rect x="139.997310" y="168.637500" width="0.823146" height="18.362500" fill="#00A0D6"><title>Jun 22  2022: 130.0 (1 night)</title></rect><rect x="140.911916" y="162.563750" width="0.823146" height="24.436250" fill="#7B8AE6"><title>Jun 22  2023: 173.0 (1 night)</title></rect><rect x="141.826522" y="83.040000" width="0.823146" height="103.960000" fill="#C071DC"><title>Jun 22  2024: 736.0 (1 night)</title></rect><rect x="144.193739" y="186.435000" width="0.823146" height="0.565000" fill="#E16A86"><title>Jun 23  2015: 4.0 (1 night)</title></rect><rect x="145.108345" y="176.547500" width="0.823146" height="10.452500" fill="#B28D00"><title>Jun 23  2017: 74.0 (1 night)</title></rect><rect x="146.022951" y="186.293750" width="0.823146" height="0.706250" fill="#829C00"><title>Jun 23  2018: 5.0 (1 night)</title></rect><rect x="146.937557" y="185.163750" width="0.823146" height="1.836250" fill="#20A73C"><title>Jun 23  2019: 13.0 (1 night)</title></rect><rect x="147.852163" y="173.298750" width="0.823146" height="13.701250" fill="#00AD7F"><title>Jun 23  2020: 97.0 (1 night)</title></rect><rect x="148.766770" y="186.858750" width="0.823146" height="0.141250" fill="#00ABB2"><title>Jun 23  2021: 1.0 (1 night)</title></rect><rect x="149.681376" y="186.011250" width="0.823146" height="0.988750" fill="#00A0D6"><title>Jun 23  2022: 7.0 (1 night)</title></rect><rect x="150.595982" y="151.405000" width="0.823146" height="35.595000" fill="#7B8AE6"><title>Jun 23  2023: 252.0 (1 night)</title></rect><rect x="151.510588" y="171.321250" width="0.823146" height="15.678750" fill="#C071DC"><title>Jun 23  2024: 111.0 (1 night)</title></rect><rect x="153.877804" y="170.473750" width="0.823146" height="16.526250" fill="#E16A86"><title>Jun 24  2015: 117.0 (1 night)</title></rect><rect x="154.792411" y="177.960000" width="0.823146" height="9.040000" fill="#B28D00"><title>Jun 24  2017: 64.0 (1 night)</title></rect><rect x="155.707017" y="185.163750" width="0.823146" height="1.836250" fill="#829C00"><title>Jun 24  2018: 13.0 (1 night)</title></rect><rect x="156.621623" y="186.293750" width="0.823146" height="0.706250" fill="#20A73C"><title>Jun 24  2019: 5.0 (1 night)</title></rect><rect x="157.536229" y="185.305000" width="0.823146" height="1.695000" fill="#00AD7F"><title>Jun 24  2020: 12.0 (1 night)</title></rect><rect x="158.450836" y="187.000000" width="0.823146" height="0.000000" fill="#00ABB2"><title>Jun 24  2021: 0.0 (1 night)</title></rect><rect x="159.365442" y="187.000000" width="0.823146" height="0.000000" fill="#00A0D6"><title>Jun 24  2022: 0.0 (1 night)</title></rect><rect x="160.280048" y="115.245000" width="0.823146" height="71.755000" fill="#7B8AE6"><title>Jun 24  2023: 508.0 (1 night)</title></rect><rect x="161.194654" y="145.613750" width="0.823146" height="41.386250" fill="#C071DC"><title>Jun 24  2024: 293.0 (1 night)</title></rect><rect x="163.561870" y="183.186250" width="0.823146" height="3.813750" fill="#E16A86"><title>Jun 25  2015: 27.0 (1 night)</title></rect><rect x="164.476477" y="166.660000" width="0.823146" height="20.340000" fill="#B28D00"><title>Jun 25  2017: 144.0 (1 night)</title></rect><rect x="165.391083" y="186.152500" width="0.823146" height="0.847500" fill="#829C00"><title>Jun 25  2018: 6.0 (1 night)</title></rect><rect x="166.305689" y="186.717500" width="0.823146" height="0.282500" fill="#20A73C"><title>Jun 25  2019: 2.0 (1 night)</title></rect><rect x="167.220295" y="132.760000" width="0.823146" height="54.240000" fill="#00AD7F"><title>Jun 25  2020: 384.0 (1 night)</title></rect><rect x="168.134902" y="186.858750" width="0.823146" height="0.141250" fill="#00ABB2"><title>Jun 25  2021: 1.0 (1 night)</title></rect><rect x="169.049508" y="185.587500" width="0.823146" height="1.412500" fill="#00A0D6"><title>Jun 25  2022: 10.0 (1 night)</title></rect><rect x="169.964114" y="149.851250" width="0.823146" height="37.148750" fill="#7B8AE6"><title>Jun 25  2023: 263.0 (1 night)</title></rect><rect x="170.878720" y="150.133750" width="0.823146" height="36.866250" fill="#C071DC"><title>Jun 25  2024: 261.0 (1 night)</title></rect><rect x="173.245936" y="186.152500" width="0.823146" height="0.847500" fill="#E16A86"><title>Jun 26  2015: 6.0 (1 night)</title></rect><rect x="174.160543" y="183.327500" width="0.823146" height="3.672500" fill="#B28D00"><title>Jun 26  2017: 26.0 (1 night)</title></rect><rect x="175.989755" y="186.576250" width="0.823146" height="0.423750" fill="#20A73C"><title>Jun 26  2019: 3.0 (1 night)</title></rect><rect x="176.904361" y="173.863750" width="0.823146" height="13.136250" fill="#00AD7F"><title>Jun 26  2020: 93.0 (1 night)</title></rect><rect x="177.818967" y="186.576250" width="0.823146" height="0.423750" fill="#00ABB2"><title>Jun 26  2021: 3.0 (1 night)</title></rect><rect x="178.733574" y="185.022500" width="0.823146" height="1.977500" fill="#00A0D6"><title>Jun 26  2022: 14.0 (1 night)</title></rect><rect x="179.648180" y="152.252500" width="0.823146" height="34.747500" fill="#7B8AE6"><title>Jun 26  2023: 246.0 (1 night)</title></rect><rect x="180.562786" y="122.307500" width="0.823146" height="64.692500" fill="#C071DC"><title>Jun 26  2024: 458.0 (1 night)</title></rect><rect x="182.930002" y="185.587500" width="0.823146" height="1.412500" fill="#E16A86"><title>Jun 27  2015: 10.0 (1 night)</title></rect><rect x="183.844609" y="186.152500" width="0.823146" height="0.847500" fill="#B28D00"><title>Jun 27  2017: 6.0 (1 night)</title></rect><rect x="185.673821" y="186.293750" width="0.823146" height="0.706250" fill="#20A73C"><title>Jun 27  2019: 5.0 (1 night)</title></rect><rect x="186.588427" y="183.468750" width="0.823146" height="3.531250" fill="#00AD7F"><title>Jun 27  2020: 25.0 (1 night)</title></rect><rect x="187.503033" y="186.858750" width="0.823146" height="0.141250" fill="#00ABB2"><title>Jun 27  2021: 1.0 (1 night)</title></rect><rect x="188.417640" y="186.293750" width="0.823146" height="0.706250" fill="#00A0D6"><title>Jun 27  2022: 5.0 (1 night)</title></rect><rect x="189.332246" y="171.038750" width="0.823146" height="15.961250" fill="#7B8AE6"><title>Jun 27  2023: 113.0 (1 night)</title></rect><rect x="190.246852" y="163.693750" width="0.823146" height="23.306250" fill="#C071DC"><title>Jun 27  2024: 165.0 (1 night)</title></rect><rect x="192.614068" y="174.428750" width="0.823146" height="12.571250" fill="#E16A86"><title>Jun 28  2015: 89.0 (1 night)</title></rect><rect x="195.357887" y="186.858750" width="0.823146" height="0.141250" fill="#20A73C"><title>Jun 28  2019: 1.0 (1 night)</title></rect><rect x="196.272493" y="185.728750" width="0.823146" height="1.271250" fill="#00AD7F"><title>Jun 28  2020: 9.0 (1 night)</title></rect><rect x="197.187099" y="187.000000" width="0.823146" height="0.000000" fill="#00ABB2"><title>Jun 28  2021: 0.0 (1 night)</title></rect><rect x="198.101706" y="139.257500" width="0.823146" height="47.742500" fill="#00A0D6"><title>Jun 28  2022: 338.0 (1 night)</title></rect><rect x="199.016312" y="173.581250" width="0.823146" height="13.418750" fill="#7B8AE6"><title>Jun 28  2023: 95.0 (1 night)</title></rect><rect x="199.930918" y="168.496250" width="0.823146" height="18.503750" fill="#C071DC"><title>Jun 28  2024: 131.0 (1 night)</title></rect><rect x="202.298134" y="175.276250" width="0.823146" height="11.723750" fill="#E16A86"><title>Jun 29  2015: 83.0 (1 night)</title></rect><rect x="205.041953" y="186.011250" width="0.823146" height="0.988750" fill="#20A73C"><title>Jun 29  2019: 7.0 (1 night)</title></rect><rect x="205.956559" y="178.807500" width="0.823146" height="8.192500" fill="#00AD7F"><title>Jun 29  2020: 58.0 (1 night)</title></rect><rect x="206.871165" y="187.000000" width="0.823146" height="0.000000" fill="#00ABB2"><title>Jun 29  2021: 0.0 (1 night)</title></rect><rect x="207.785772" y="186.152500" width="0.823146" height="0.847500" fill="#00A0D6"><title>Jun 29  2022: 6.0 (1 night)</title></rect><rect x="208.700378" y="177.677500" width="0.823146" height="9.322500" fill="#7B8AE6"><title>Jun 29  2023: 66.0 (1 night)</title></rect><rect x="209.614984" y="119.058750" width="0.823146" height="67.941250" fill="#C071DC"><title>Jun 29  2024: 481.0 (1 night)</title></rect><rect x="211.982200" y="184.457500" width="0.823146" height="2.542500" fill="#E16A86"><title>Jun 30  2015: 18.0 (1 night)</title></rect><rect x="214.726019" y="186.011250" width="0.823146" height="0.988750" fill="#20A73C"><title>Jun 30  2019: 7.0 (1 night)</title></rect><rect x="215.640625" y="183.751250" width="0.823146" height="3.248750" fill="#00AD7F"><title>Jun 30  2020: 23.0 (1 night)</title></rect><rect x="216.555231" y="187.000000" width="0.823146" height="0.000000" fill="#00ABB2"><title>Jun 30  2021: 0.0 (1 night)</title></rect><rect x="217.469837" y="186.858750" width="0.823146" height="0.141250" fill="#00A0D6"><title>Jun 30  2022: 1.0 (1 night)</title></rect><rect x="218.384444" y="183.610000" width="0.823146" height="3.390000" fill="#7B8AE6"><title>Jun 30  2023: 24.0 (1 night)</title></rect><rect x="219.299050" y="99.142500" width="0.823146" height="87.857500" fill="#C071DC"><title>Jun 30  2024: 622.0 (1 night)</title></rect><rect x="221.666266" y="186.576250" width="0.823146" height="0.423750" fill="#E16A86"><title>Jul 01  2015: 3.0 (1 night)</title></rect><rect x="224.410085" y="186.717500" width="0.823146" height="0.282500" fill="#20A73C"><title>Jul 01  2019: 2.0 (1 night)</title></rect><rect x="226.239297" y="186.858750" width="0.823146" height="0.141250" fill="#00ABB2"><title>Jul 01  2021: 1.0 (1 night)</title></rect><rect x="227.153903" y="161.575000" width="0.823146" height="25.425000" fill="#00A0D6"><title>Jul 01  2022: 180.0 (1 night)</title></rect><rect x="228.068510" y="186.293750" width="0.823146" height="0.706250" fill="#7B8AE6"><title>Jul 01  2023: 5.0 (1 night)</title></rect><rect x="228.983116" y="127.392500" width="0.823146" height="59.607500" fill="#C071DC"><title>Jul 01  2024: 422.0 (1 night)</title></rect><rect x="231.350332" y="186.858750" width="0.823146" height="0.141250" fill="#E16A86"><title>Jul 02  2015: 1.0 (1 night)</title></rect><rect x="234.094151" y="186.435000" width="0.823146" height="0.565000" fill="#20A73C"><title>Jul 02  2019: 4.0 (1 night)</title></rect><rect x="235.923363" y="186.576250" width="0.823146" height="0.423750" fill="#00ABB2"><title>Jul 02  2021: 3.0 (1 night)</title></rect><rect x="236.837969" y="164.117500" width="0.823146" height="22.882500" fill="#00A0D6"><title>Jul 02  2022: 162.0 (1 night)</title></rect><rect x="237.752576" y="186.858750" width="0.823146" height="0.141250" fill="#7B8AE6"><title>Jul 02  2023: 1.0 (1 night)</title></rect><rect x="238.667182" y="122.590000" width="0.823146" height="64.410000" fill="#C071DC"><title>Jul 02  2024: 456.0 (1 night)</title></rect><rect x="241.034398" y="185.022500" width="0.823146" height="1.977500" fill="#E16A86"><title>Jul 03  2015: 14.0 (1 night)</title></rect><rect x="243.778217" y="186.435000" width="0.823146" height="0.565000" fill="#20A73C"><title>Jul 03  2019: 4.0 (1 night)</title></rect><rect x="245.607429" y="186.576250" width="0.823146" height="0.423750" fill="#00ABB2"><title>Jul 03  2021: 3.0 (1 night)</title></rect><rect x="246.522035" y="149.286250" width="0.823146" height="37.713750" fill="#00A0D6"><title>Jul 03  2022: 267.0 (1 night)</title></rect><rect x="247.436641" y="187.000000" width="0.823146" height="0.000000" fill="#7B8AE6"><title>Jul 03  2023: 0.0 (1 night)</title></rect><rect x="248.351248" y="185.587500" width="0.823146" height="1.412500" fill="#C071DC"><title>Jul 03  2024: 10.0 (1 night)</title></rect><rect x="250.718464" y="185.022500" width="0.823146" height="1.977500" fill="#E16A86"><title>Jul 04  2015: 14.0 (1 night)</title></rect><rect x="253.462283" y="185.587500" width="0.823146" height="1.412500" fill="#20A73C"><title>Jul 04  2019: 10.0 (1 night)</title></rect><rect x="256.206101" y="187.000000" width="0.823146" height="0.000000" fill="#00A0D6"><title>Jul 04  2022: 0.0 (1 night)</title></rect><rect x="260.402530" y="186.435000" width="0.823146" height="0.565000" fill="#E16A86"><title>Jul 05  2015: 4.0 (1 night)</title></rect><rect x="263.146348" y="178.948750" width="0.823146" height="8.051250" fill="#20A73C"><title>Jul 05  2019: 57.0 (1 night)</title></rect><rect x="270.086596" y="183.186250" width="0.823146" height="3.813750" fill="#E16A86"><title>Jul 06  2015: 27.0 (1 night)</title></rect><rect x="272.830414" y="169.767500" width="0.823146" height="17.232500" fill="#20A73C"><title>Jul 06  2019: 122.0 (1 night)</title></rect><rect x="279.770662" y="185.870000" width="0.823146" height="1.130000" fill="#E16A86"><title>Jul 07  2015: 8.0 (1 night)</title></rect><rect x="282.514480" y="183.751250" width="0.823146" height="3.248750" fill="#20A73C"><title>Jul 07  2019: 23.0 (1 night)</title></rect><rect x="289.454728" y="186.435000" width="0.823146" height="0.565000" fill="#E16A86"><title>Jul 08  2015: 4.0 (1 night)</title></rect><rect x="299.138793" y="182.480000" width="0.823146" height="4.520000" fill="#E16A86"><title>Jul 09  2015: 32.0 (1 night)</title></rect><rect x="308.822859" y="173.298750" width="0.823146" height="13.701250" fill="#E16A86"><title>Jul 10  2015: 97.0 (1 night)</title></rect><text x="61.107143" y="199.000000" font-size="9" fill="#555" text-anchor="end" font-family="sans-serif" transform="rotate(-40 61.107143 199.000000)">Jun 14</text><text x="99.843407" y="199.000000" font-size="9" fill="#555" text-anchor="end" font-family="sans-serif" transform="rotate(-40 99.843407 199.000000)">Jun 18</text><text x="128.895604" y="199.000000" font-size="9" fill="#555" text-anchor="end" font-family="sans-serif" transform="rotate(-40 128.895604 199.000000)">Jun 21</text><text x="167.631868" y="199.000000" font-size="9" fill="#555" text-anchor="end" font-family="sans-serif" transform="rotate(-40 167.631868 199.000000)">Jun 25</text><text x="206.368132" y="199.000000" font-size="9" fill="#555" text-anchor="end" font-family="sans-serif" transform="rotate(-40 206.368132 199.000000)">Jun 29</text><text x="245.104396" y="199.000000" font-size="9" fill="#555" text-anchor="end" font-family="sans-serif" transform="rotate(-40 245.104396 199.000000)">Jul 03</text><text x="274.156593" y="199.000000" font-size="9" fill="#555" text-anchor="end" font-family="sans-serif" transform="rotate(-40 274.156593 199.000000)">Jul 06</text><text x="312.892857" y="199.000000" font-size="9" fill="#555" text-anchor="end" font-family="sans-serif" transform="rotate(-40 312.892857 199.000000)">Jul 10</text><text x="11" y="130.500000" font-size="9" fill="#555" text-anchor="middle" font-family="sans-serif" transform="rotate(-90 11 130.500000)">Recordings / night</text></svg>
