<svg width="340" height="200" viewBox="0 0 340 200" xmlns="http://www.w3.org/2000/svg"><path d="M 86.000000 94.000000 L 86.000000 24.000000 A 70.000000 70.000000 0 1 1 18.918098 73.999541 Z" fill="#bbbbbb" stroke="#ffffff" stroke-width="1"><title>NOID: 82 (79.6%)</title></path><path d="M 86.000000 94.000000 L 18.918098 73.999541 A 70.000000 70.000000 0 0 1 33.224839 48.013237 Z" fill="#bbbbbb" stroke="#ffffff" stroke-width="1"><title>40KMYO: 7 (6.8%)</title></path><path d="M 86.000000 94.000000 L 33.224839 48.013237 A 70.000000 70.000000 0 0 1 53.178890 32.171408 Z" fill="#bbbbbb" stroke="#ffffff" stroke-width="1"><title>EPFULANO: 6 (5.8%)</title></path><path d="M 86.000000 94.000000 L 53.178890 32.171408 A 70.000000 70.000000 0 0 1 69.088487 26.073564 Z" fill="#bbbbbb" stroke="#ffffff" stroke-width="1"><title>LABOMYLU: 4 (3.9%)</title></path><path d="M 86.000000 94.000000 L 69.088487 26.073564 A 70.000000 70.000000 0 0 1 77.480919 24.520325 Z" fill="#06D6A0" stroke="#ffffff" stroke-width="1"><title>LACI: 2 (1.9%)</title></path><path d="M 86.000000 94.000000 L 77.480919 24.520325 A 70.000000 70.000000 0 0 1 86.000000 24.000000 Z" fill="#E15759" stroke="#ffffff" stroke-width="1"><title>LANO: 2 (1.9%)</title></path><rect x="174.000000" y="46.000000" width="10" height="10" rx="2" fill="#bbbbbb" stroke="#999999" stroke-width="0.5"/><text x="189.000000" y="55.000000" font-size="10" fill="#333333" font-family="sans-serif"><tspan font-weight="bold">NOID</tspan>  82 (79.6%)</text><rect x="174.000000" y="63.000000" width="10" height="10" rx="2" fill="#bbbbbb" stroke="#999999" stroke-width="0.5"/><text x="189.000000" y="72.000000" font-size="10" fill="#333333" font-family="sans-serif"><tspan font-weight="bold">40KMYO</tspan>  7 (6.8%)</text><rect x="174.000000" y="80.000000" width="10" height="10" rx="2" fill="#bbbbbb" stroke="#999999" stroke-width="0.5"/><text x="189.000000" y="89.000000" font-size="10" fill="#333333" font-family="sans-serif"><tspan font-weight="bold">EPFULANO</tspan>  6 (5.8%)</text><rect x="174.000000" y="97.000000" width="10" height="10" rx="2" fill="#bbbbbb" stroke="#999999" stroke-width="0.5"/><text x="189.000000" y="106.000000" font-size="10" fill="#333333" font-family="sans-serif"><tspan font-weight="bold">LABOMYLU</tspan>  4 (3.9%)</text><rect x="174.000000" y="114.000000" width="10" height="10" rx="2" fill="#06D6A0" stroke="#999999" stroke-width="0.5"/><text x="189.000000" y="123.000000" font-size="10" fill="#333333" font-family="sans-serif"><tspan font-weight="bold">LACI</tspan>  2 (1.9%)</text><rect x="174.000000" y="131.000000" width="10" height="10" rx="2" fill="#E15759" stroke="#999999" stroke-width="0.5"/><text x="189.000000" y="140.000000" font-size="10" fill="#333333" font-family="sans-serif"><tspan font-weight="bold">LANO</tspan>  2 (1.9%)</text><text x="86.000000" y="196.000000" font-size="11" font-weight="bold" fill="#2c3e50" text-anchor="middle" font-family="sans-serif">Total bats: 103</text></svg>
