<svg width="340" height="200" viewBox="0 0 340 200" xmlns="http://www.w3.org/2000/svg"><path d="M 86.000000 94.000000 L 86.000000 24.000000 A 70.000000 70.000000 0 0 1 127.389556 150.452677 Z" fill="#bbbbbb" stroke="#ffffff" stroke-width="1"><title>NOID: 232 (39.9%)</title></path><path d="M 86.000000 94.000000 L 127.389556 150.452677 A 70.000000 70.000000 0 0 1 42.801035 149.080391 Z" fill="#59A14F" stroke="#ffffff" stroke-width="1"><title>MYLU: 120 (20.7%)</title></path><path d="M 86.000000 94.000000 L 42.801035 149.080391 A 70.000000 70.000000 0 0 1 21.024907 67.957010 Z" fill="#8338EC" stroke="#ffffff" stroke-width="1"><title>LABO: 119 (20.5%)</title></path><path d="M 86.000000 94.000000 L 21.024907 67.957010 A 70.000000 70.000000 0 0 1 54.609115 31.433137 Z" fill="#06D6A0" stroke="#ffffff" stroke-width="1"><title>LACI: 67 (11.5%)</title></path><path d="M 86.000000 94.000000 L 54.609115 31.433137 A 70.000000 70.000000 0 0 1 73.203197 25.179641 Z" fill="#E15759" stroke="#ffffff" stroke-width="1"><title>LANO: 26 (4.5%)</title></path><path d="M 86.000000 94.000000 L 73.203197 25.179641 A 70.000000 70.000000 0 0 1 83.729368 24.036837 Z" fill="#F28E2B" stroke="#ffffff" stroke-width="1"><title>EPFU: 14 (2.4%)</title></path><path d="M 86.000000 94.000000 L 83.729368 24.036837 A 70.000000 70.000000 0 0 1 85.243004 24.004093 Z" fill="#9B59B6" stroke="#ffffff" stroke-width="1"><title>MYVO: 2 (0.3%)</title></path><path d="M 86.000000 94.000000 L 85.243004 24.004093 A 70.000000 70.000000 0 0 1 86.000000 24.000000 Z" fill="#F94144" stroke="#ffffff" stroke-width="1"><title>MYSE: 1 (0.2%)</title></path><rect x="174.000000" y="29.000000" width="10" height="10" rx="2" fill="#bbbbbb" stroke="#999999" stroke-width="0.5"/><text x="189.000000" y="38.000000" font-size="10" fill="#333333" font-family="sans-serif"><tspan font-weight="bold">NOID</tspan>  232 (39.9%)</text><rect x="174.000000" y="46.000000" width="10" height="10" rx="2" fill="#59A14F" stroke="#999999" stroke-width="0.5"/><text x="189.000000" y="55.000000" font-size="10" fill="#333333" font-family="sans-serif"><tspan font-weight="bold">MYLU</tspan>  120 (20.7%)</text><rect x="174.000000" y="63.000000" width="10" height="10" rx="2" fill="#8338EC" stroke="#999999" stroke-width="0.5"/><text x="189.000000" y="72.000000" font-size="10" fill="#333333" font-family="sans-serif"><tspan font-weight="bold">LABO</tspan>  119 (20.5%)</text><rect x="174.000000" y="80.000000" width="10" height="10" rx="2" fill="#06D6A0" stroke="#999999" stroke-width="0.5"/><text x="189.000000" y="89.000000" font-size="10" fill="#333333" font-family="sans-serif"><tspan font-weight="bold">LACI</tspan>  67 (11.5%)</text><rect x="174.000000" y="97.000000" width="10" height="10" rx="2" fill="#E15759" stroke="#999999" stroke-width="0.5"/><text x="189.000000" y="106.000000" font-size="10" fill="#333333" font-family="sans-serif"><tspan font-weight="bold">LANO</tspan>  26 (4.5%)</text><rect x="174.000000" y="114.000000" width="10" height="10" rx="2" fill="#F28E2B" stroke="#999999" stroke-width="0.5"/><text x="189.000000" y="123.000000" font-size="10" fill="#333333" font-family="sans-serif"><tspan font-weight="bold">EPFU</tspan>  14 (2.4%)</text><rect x="174.000000" y="131.000000" width="10" height="10" rx="2" fill="#9B59B6" stroke="#999999" stroke-width="0.5"/><text x="189.000000" y="140.000000" font-size="10" fill="#333333" font-family="sans-serif"><tspan font-weight="bold">MYVO</tspan>  2 (0.3%)</text><rect x="174.000000" y="148.000000" width="10" height="10" rx="2" fill="#F94144" stroke="#999999" stroke-width="0.5"/><text x="189.000000" y="157.000000" font-size="10" fill="#333333" font-family="sans-serif"><tspan font-weight="bold">MYSE</tspan>  1 (0.2%)</text><text x="86.000000" y="196.000000" font-size="11" font-weight="bold" fill="#2c3e50" text-anchor="middle" font-family="sans-serif">Total bats: 581</text></svg>
