<svg width="340" height="200" viewBox="0 0 340 200" xmlns="http://www.w3.org/2000/svg"><path d="M 86.000000 94.000000 L 86.000000 24.000000 A 70.000000 70.000000 0 0 1 149.441545 123.583278 Z" fill="#59A14F" stroke="#ffffff" stroke-width="1"><title>MYLU: 69 (31.9%)</title></path><path d="M 86.000000 94.000000 L 149.441545 123.583278 A 70.000000 70.000000 0 0 1 32.376889 138.995133 Z" fill="#bbbbbb" stroke="#ffffff" stroke-width="1"><title>NOID: 69 (31.9%)</title></path><path d="M 86.000000 94.000000 L 32.376889 138.995133 A 70.000000 70.000000 0 0 1 17.063457 106.155372 Z" fill="#06D6A0" stroke="#ffffff" stroke-width="1"><title>LACI: 18 (8.3%)</title></path><path d="M 86.000000 94.000000 L 17.063457 106.155372 A 70.000000 70.000000 0 0 1 18.940734 73.923774 Z" fill="#bbbbbb" stroke="#ffffff" stroke-width="1"><title>25K: 16 (7.4%)</title></path><path d="M 86.000000 94.000000 L 18.940734 73.923774 A 70.000000 70.000000 0 0 1 33.708245 47.464289 Z" fill="#bbbbbb" stroke="#ffffff" stroke-width="1"><title>LOF: 15 (6.9%)</title></path><path d="M 86.000000 94.000000 L 33.708245 47.464289 A 70.000000 70.000000 0 0 1 52.777974 32.385903 Z" fill="#bbbbbb" stroke="#ffffff" stroke-width="1"><title>EPFULANO: 12 (5.6%)</title></path><path d="M 86.000000 94.000000 L 52.777974 32.385903 A 70.000000 70.000000 0 0 1 67.882667 26.385192 Z" fill="#F28E2B" stroke="#ffffff" stroke-width="1"><title>EPFU: 8 (3.7%)</title></path><path d="M 86.000000 94.000000 L 67.882667 26.385192 A 70.000000 70.000000 0 0 1 75.854770 24.739085 Z" fill="#bbbbbb" stroke="#ffffff" stroke-width="1"><title>40K: 4 (1.9%)</title></path><path d="M 86.000000 94.000000 L 75.854770 24.739085 A 70.000000 70.000000 0 0 1 81.929862 24.118429 Z" fill="#E15759" stroke="#ffffff" stroke-width="1"><title>LANO: 3 (1.4%)</title></path><path d="M 86.000000 94.000000 L 81.929862 24.118429 A 70.000000 70.000000 0 0 1 86.000000 24.000000 Z" fill="#8338EC" stroke="#ffffff" stroke-width="1"><title>LABO: 2 (0.9%)</title></path><rect x="174.000000" y="12.000000" width="10" height="10" rx="2" fill="#59A14F" stroke="#999999" stroke-width="0.5"/><text x="189.000000" y="21.000000" font-size="10" fill="#333333" font-family="sans-serif"><tspan font-weight="bold">MYLU</tspan>  69 (31.9%)</text><rect x="174.000000" y="29.000000" width="10" height="10" rx="2" fill="#bbbbbb" stroke="#999999" stroke-width="0.5"/><text x="189.000000" y="38.000000" font-size="10" fill="#333333" font-family="sans-serif"><tspan font-weight="bold">NOID</tspan>  69 (31.9%)</text><rect x="174.000000" y="46.000000" width="10" height="10" rx="2" fill="#06D6A0" stroke="#999999" stroke-width="0.5"/><text x="189.000000" y="55.000000" font-size="10" fill="#333333" font-family="sans-serif"><tspan font-weight="bold">LACI</tspan>  18 (8.3%)</text><rect x="174.000000" y="63.000000" width="10" height="10" rx="2" fill="#bbbbbb" stroke="#999999" stroke-width="0.5"/><text x="189.000000" y="72.000000" font-size="10" fill="#333333" font-family="sans-serif"><tspan font-weight="bold">25K</tspan>  16 (7.4%)</text><rect x="174.000000" y="80.000000" width="10" height="10" rx="2" fill="#bbbbbb" stroke="#999999" stroke-width="0.5"/><text x="189.000000" y="89.000000" font-size="10" fill="#333333" font-family="sans-serif"><tspan font-weight="bold">LOF</tspan>  15 (6.9%)</text><rect x="174.000000" y="97.000000" width="10" height="10" rx="2" fill="#bbbbbb" stroke="#999999" stroke-width="0.5"/><text x="189.000000" y="106.000000" font-size="10" fill="#333333" font-family="sans-serif"><tspan font-weight="bold">EPFULANO</tspan>  12 (5.6%)</text><rect x="174.000000" y="114.000000" width="10" height="10" rx="2" fill="#F28E2B" stroke="#999999" stroke-width="0.5"/><text x="189.000000" y="123.000000" font-size="10" fill="#333333" font-family="sans-serif"><tspan font-weight="bold">EPFU</tspan>  8 (3.7%)</text><rect x="174.000000" y="131.000000" width="10" height="10" rx="2" fill="#bbbbbb" stroke="#999999" stroke-width="0.5"/><text x="189.000000" y="140.000000" font-size="10" fill="#333333" font-family="sans-serif"><tspan font-weight="bold">40K</tspan>  4 (1.9%)</text><rect x="174.000000" y="148.000000" width="10" height="10" rx="2" fill="#E15759" stroke="#999999" stroke-width="0.5"/><text x="189.000000" y="157.000000" font-size="10" fill="#333333" font-family="sans-serif"><tspan font-weight="bold">LANO</tspan>  3 (1.4%)</text><rect x="174.000000" y="165.000000" width="10" height="10" rx="2" fill="#8338EC" stroke="#999999" stroke-width="0.5"/><text x="189.000000" y="174.000000" font-size="10" fill="#333333" font-family="sans-serif"><tspan font-weight="bold">LABO</tspan>  2 (0.9%)</text><text x="86.000000" y="196.000000" font-size="11" font-weight="bold" fill="#2c3e50" text-anchor="middle" font-family="sans-serif">Total bats: 216</text></svg>
