<svg width="340" height="200" viewBox="0 0 340 200" xmlns="http://www.w3.org/2000/svg"><path d="M 86.000000 94.000000 L 86.000000 24.000000 A 70.000000 70.000000 0 1 1 45.493009 151.089261 Z" fill="#59A14F" stroke="#ffffff" stroke-width="1"><title>MYLU: 201 (59.8%)</title></path><path d="M 86.000000 94.000000 L 45.493009 151.089261 A 70.000000 70.000000 0 0 1 16.781842 83.567041 Z" fill="#bbbbbb" stroke="#ffffff" stroke-width="1"><title>NOID: 59 (17.6%)</title></path><path d="M 86.000000 94.000000 L 16.781842 83.567041 A 70.000000 70.000000 0 0 1 26.729306 56.757755 Z" fill="#8338EC" stroke="#ffffff" stroke-width="1"><title>LABO: 22 (6.5%)</title></path><path d="M 86.000000 94.000000 L 26.729306 56.757755 A 70.000000 70.000000 0 0 1 44.432587 37.678155 Z" fill="#06D6A0" stroke="#ffffff" stroke-width="1"><title>LACI: 20 (6.0%)</title></path><path d="M 86.000000 94.000000 L 44.432587 37.678155 A 70.000000 70.000000 0 0 1 65.367138 27.109904 Z" fill="#F28E2B" stroke="#ffffff" stroke-width="1"><title>EPFU: 18 (5.4%)</title></path><path d="M 86.000000 94.000000 L 65.367138 27.109904 A 70.000000 70.000000 0 0 1 74.274564 24.989029 Z" fill="#E15759" stroke="#ffffff" stroke-width="1"><title>LANO: 7 (2.1%)</title></path><path d="M 86.000000 94.000000 L 74.274564 24.989029 A 70.000000 70.000000 0 0 1 80.768893 24.195734 Z" fill="#bbbbbb" stroke="#ffffff" stroke-width="1"><title>LABOMYLU: 5 (1.5%)</title></path><path d="M 86.000000 94.000000 L 80.768893 24.195734 A 70.000000 70.000000 0 0 1 82.075069 24.110123 Z" fill="#bbbbbb" stroke="#ffffff" stroke-width="1"><title>40K: 1 (0.3%)</title></path><path d="M 86.000000 94.000000 L 82.075069 24.110123 A 70.000000 70.000000 0 0 1 83.382616 24.048951 Z" fill="#bbbbbb" stroke="#ffffff" stroke-width="1"><title>40KMYO: 1 (0.3%)</title></path><path d="M 86.000000 94.000000 L 83.382616 24.048951 A 70.000000 70.000000 0 0 1 84.691079 24.012239 Z" fill="#bbbbbb" stroke="#ffffff" stroke-width="1"><title>HIGHF: 1 (0.3%)</title></path><path d="M 86.000000 94.000000 L 84.691079 24.012239 A 70.000000 70.000000 0 0 1 86.000000 24.000000 Z" fill="#118AB2" stroke="#ffffff" stroke-width="1"><title>MYCA: 1 (0.3%)</title></path><rect x="174.000000" y="3.500000" width="10" height="10" rx="2" fill="#59A14F" stroke="#999999" stroke-width="0.5"/><text x="189.000000" y="12.500000" font-size="10" fill="#333333" font-family="sans-serif"><tspan font-weight="bold">MYLU</tspan>  201 (59.8%)</text><rect x="174.000000" y="20.500000" width="10" height="10" rx="2" fill="#bbbbbb" stroke="#999999" stroke-width="0.5"/><text x="189.000000" y="29.500000" font-size="10" fill="#333333" font-family="sans-serif"><tspan font-weight="bold">NOID</tspan>  59 (17.6%)</text><rect x="174.000000" y="37.500000" width="10" height="10" rx="2" fill="#8338EC" stroke="#999999" stroke-width="0.5"/><text x="189.000000" y="46.500000" font-size="10" fill="#333333" font-family="sans-serif"><tspan font-weight="bold">LABO</tspan>  22 (6.5%)</text><rect x="174.000000" y="54.500000" width="10" height="10" rx="2" fill="#06D6A0" stroke="#999999" stroke-width="0.5"/><text x="189.000000" y="63.500000" font-size="10" fill="#333333" font-family="sans-serif"><tspan font-weight="bold">LACI</tspan>  20 (6.0%)</text><rect x="174.000000" y="71.500000" width="10" height="10" rx="2" fill="#F28E2B" stroke="#999999" stroke-width="0.5"/><text x="189.000000" y="80.500000" font-size="10" fill="#333333" font-family="sans-serif"><tspan font-weight="bold">EPFU</tspan>  18 (5.4%)</text><rect x="174.000000" y="88.500000" width="10" height="10" rx="2" fill="#E15759" stroke="#999999" stroke-width="0.5"/><text x="189.000000" y="97.500000" font-size="10" fill="#333333" font-family="sans-serif"><tspan font-weight="bold">LANO</tspan>  7 (2.1%)</text><rect x="174.000000" y="105.500000" width="10" height="10" rx="2" fill="#bbbbbb" stroke="#999999" stroke-width="0.5"/><text x="189.000000" y="114.500000" font-size="10" fill="#333333" font-family="sans-serif"><tspan font-weight="bold">LABOMYLU</tspan>  5 (1.5%)</text><rect x="174.000000" y="122.500000" width="10" height="10" rx="2" fill="#bbbbbb" stroke="#999999" stroke-width="0.5"/><text x="189.000000" y="131.500000" font-size="10" fill="#333333" font-family="sans-serif"><tspan font-weight="bold">40K</tspan>  1 (0.3%)</text><rect x="174.000000" y="139.500000" width="10" height="10" rx="2" fill="#bbbbbb" stroke="#999999" stroke-width="0.5"/><text x="189.000000" y="148.500000" font-size="10" fill="#333333" font-family="sans-serif"><tspan font-weight="bold">40KMYO</tspan>  1 (0.3%)</text><rect x="174.000000" y="156.500000" width="10" height="10" rx="2" fill="#bbbbbb" stroke="#999999" stroke-width="0.5"/><text x="189.000000" y="165.500000" font-size="10" fill="#333333" font-family="sans-serif"><tspan font-weight="bold">HIGHF</tspan>  1 (0.3%)</text><rect x="174.000000" y="173.500000" width="10" height="10" rx="2" fill="#118AB2" stroke="#999999" stroke-width="0.5"/><text x="189.000000" y="182.500000" font-size="10" fill="#333333" font-family="sans-serif"><tspan font-weight="bold">MYCA</tspan>  1 (0.3%)</text><text x="86.000000" y="196.000000" font-size="11" font-weight="bold" fill="#2c3e50" text-anchor="middle" font-family="sans-serif">Total bats: 336</text></svg>
