<svg width="340" height="200" viewBox="0 0 340 200" xmlns="http://www.w3.org/2000/svg"><path d="M 86.000000 94.000000 L 86.000000 24.000000 A 70.000000 70.000000 0 1 1 44.855032 150.631190 Z" fill="#59A14F" stroke="#ffffff" stroke-width="1"><title>MYLU: 21 (60.0%)</title></path><path d="M 86.000000 94.000000 L 44.855032 150.631190 A 70.000000 70.000000 0 0 1 39.944289 41.284997 Z" fill="#bbbbbb" stroke="#ffffff" stroke-width="1"><title>NOID: 10 (28.6%)</title></path><path d="M 86.000000 94.000000 L 39.944289 41.284997 A 70.000000 70.000000 0 0 1 61.403762 28.463559 Z" fill="#E15759" stroke="#ffffff" stroke-width="1"><title>LANO: 2 (5.7%)</title></path><path d="M 86.000000 94.000000 L 61.403762 28.463559 A 70.000000 70.000000 0 0 1 73.501017 25.124929 Z" fill="#bbbbbb" stroke="#ffffff" stroke-width="1"><title>40KMYO: 1 (2.9%)</title></path><path d="M 86.000000 94.000000 L 73.501017 25.124929 A 70.000000 70.000000 0 0 1 86.000000 24.000000 Z" fill="#F28E2B" stroke="#ffffff" stroke-width="1"><title>EPFU: 1 (2.9%)</title></path><rect x="174.000000" y="54.500000" width="10" height="10" rx="2" fill="#59A14F" stroke="#999999" stroke-width="0.5"/><text x="189.000000" y="63.500000" font-size="10" fill="#333333" font-family="sans-serif"><tspan font-weight="bold">MYLU</tspan>  21 (60.0%)</text><rect x="174.000000" y="71.500000" width="10" height="10" rx="2" fill="#bbbbbb" stroke="#999999" stroke-width="0.5"/><text x="189.000000" y="80.500000" font-size="10" fill="#333333" font-family="sans-serif"><tspan font-weight="bold">NOID</tspan>  10 (28.6%)</text><rect x="174.000000" y="88.500000" width="10" height="10" rx="2" fill="#E15759" stroke="#999999" stroke-width="0.5"/><text x="189.000000" y="97.500000" font-size="10" fill="#333333" font-family="sans-serif"><tspan font-weight="bold">LANO</tspan>  2 (5.7%)</text><rect x="174.000000" y="105.500000" width="10" height="10" rx="2" fill="#bbbbbb" stroke="#999999" stroke-width="0.5"/><text x="189.000000" y="114.500000" font-size="10" fill="#333333" font-family="sans-serif"><tspan font-weight="bold">40KMYO</tspan>  1 (2.9%)</text><rect x="174.000000" y="122.500000" width="10" height="10" rx="2" fill="#F28E2B" stroke="#999999" stroke-width="0.5"/><text x="189.000000" y="131.500000" font-size="10" fill="#333333" font-family="sans-serif"><tspan font-weight="bold">EPFU</tspan>  1 (2.9%)</text><text x="86.000000" y="196.000000" font-size="11" font-weight="bold" fill="#2c3e50" text-anchor="middle" font-family="sans-serif">Total bats: 35</text></svg>
