<svg width="340" height="237" viewBox="0 0 340 237" xmlns="http://www.w3.org/2000/svg"><text x="170.000000" y="15" font-size="11" font-weight="bold" fill="#2c3e50" text-anchor="middle" font-family="sans-serif">Mean nightly detections by date</text><rect x="46.000000" y="26.000000" width="11" height="11" rx="2" fill="#00A0D6"/><text x="61.000000" y="35.000000" font-size="9" fill="#333" font-family="sans-serif">2022</text><rect x="110.000000" y="26.000000" width="11" height="11" rx="2" fill="#7B8AE6"/><text x="125.000000" y="35.000000" font-size="9" fill="#333" font-family="sans-serif">2023</text><line x1="46.000000" y1="187.000000" x2="328.000000" y2="187.000000" stroke="#e6e6e6" stroke-width="1"/><text x="41.000000" y="190.000000" font-size="9" fill="#555" text-anchor="end" font-family="sans-serif">0</text><line x1="46.000000" y1="158.800000" x2="328.000000" y2="158.800000" stroke="#e6e6e6" stroke-width="1"/><text x="41.000000" y="161.800000" font-size="9" fill="#555" text-anchor="end" font-family="sans-serif">100</text><line x1="46.000000" y1="130.600000" x2="328.000000" y2="130.600000" stroke="#e6e6e6" stroke-width="1"/><text x="41.000000" y="133.600000" font-size="9" fill="#555" text-anchor="end" font-family="sans-serif">200</text><line x1="46.000000" y1="102.400000" x2="328.000000" y2="102.400000" stroke="#e6e6e6" stroke-width="1"/><text x="41.000000" y="105.400000" font-size="9" fill="#555" text-anchor="end" font-family="sans-serif">300</text><line x1="46.000000" y1="74.200000" x2="328.000000" y2="74.200000" stroke="#e6e6e6" stroke-width="1"/><text x="41.000000" y="77.200000" font-size="9" fill="#555" text-anchor="end" font-family="sans-serif">400</text><line x1="46.000000" y1="46.000000" x2="328.000000" y2="46.000000" stroke="#e6e6e6" stroke-width="1"/><text x="41.000000" y="49.000000" font-size="9" fill="#555" text-anchor="end" font-family="sans-serif">500</text><line x1="46.000000" y1="46.000000" x2="46.000000" y2="187.000000" stroke="#888" stroke-width="1"/><line x1="46.000000" y1="187.000000" x2="328.000000" y2="187.000000" stroke="#888" stroke-width="1"/><rect x="59.682143" y="187.000000" width="1.350000" height="0.000000" fill="#00A0D6"><title>May 24  2022: 0.0 (1 night)</title></rect><rect x="61.971104" y="186.154000" width="1.350000" height="0.846000" fill="#00A0D6"><title>May 25  2022: 3.0 (1 night)</title></rect><rect x="63.471104" y="186.718000" width="1.350000" height="0.282000" fill="#7B8AE6"><title>May 25  2023: 1.0 (1 night)</title></rect><rect x="64.260065" y="187.000000" width="1.350000" height="0.000000" fill="#00A0D6"><title>May 26  2022: 0.0 (1 night)</title></rect><rect x="65.760065" y="186.718000" width="1.350000" height="0.282000" fill="#7B8AE6"><title>May 26  2023: 1.0 (1 night)</title></rect><rect x="66.549026" y="186.718000" width="1.350000" height="0.282000" fill="#00A0D6"><title>May 27  2022: 1.0 (1 night)</title></rect><rect x="68.049026" y="184.462000" width="1.350000" height="2.538000" fill="#7B8AE6"><title>May 27  2023: 9.0 (1 night)</title></rect><rect x="68.837987" y="186.436000" width="1.350000" height="0.564000" fill="#00A0D6"><title>May 28  2022: 2.0 (1 night)</title></rect><rect x="70.337987" y="184.744000" width="1.350000" height="2.256000" fill="#7B8AE6"><title>May 28  2023: 8.0 (1 night)</title></rect><rect x="71.126948" y="186.718000" width="1.350000" height="0.282000" fill="#00A0D6"><title>May 29  2022: 1.0 (1 night)</title></rect><rect x="72.626948" y="183.334000" width="1.350000" height="3.666000" fill="#7B8AE6"><title>May 29  2023: 13.0 (1 night)</title></rect><rect x="73.415909" y="186.436000" width="1.350000" height="0.564000" fill="#00A0D6"><title>May 30  2022: 2.0 (1 night)</title></rect><rect x="74.915909" y="186.436000" width="1.350000" height="0.564000" fill="#7B8AE6"><title>May 30  2023: 2.0 (1 night)</title></rect><rect x="75.704870" y="186.154000" width="1.350000" height="0.846000" fill="#00A0D6"><title>May 31  2022: 3.0 (1 night)</title></rect><rect x="77.204870" y="185.590000" width="1.350000" height="1.410000" fill="#7B8AE6"><title>May 31  2023: 5.0 (1 night)</title></rect><rect x="77.993831" y="185.026000" width="1.350000" height="1.974000" fill="#00A0D6"><title>Jun 01  2022: 7.0 (1 night)</title></rect><rect x="79.493831" y="184.180000" width="1.350000" height="2.820000" fill="#7B8AE6"><title>Jun 01  2023: 10.0 (1 night)</title></rect><rect x="80.282792" y="185.590000" width="1.350000" height="1.410000" fill="#00A0D6"><title>Jun 02  2022: 5.0 (1 night)</title></rect><rect x="81.782792" y="183.334000" width="1.350000" height="3.666000" fill="#7B8AE6"><title>Jun 02  2023: 13.0 (1 night)</title></rect><rect x="82.571753" y="186.718000" width="1.350000" height="0.282000" fill="#00A0D6"><title>Jun 03  2022: 1.0 (1 night)</title></rect><rect x="84.071753" y="183.052000" width="1.350000" height="3.948000" fill="#7B8AE6"><title>Jun 03  2023: 14.0 (1 night)</title></rect><rect x="84.860714" y="184.180000" width="1.350000" height="2.820000" fill="#00A0D6"><title>Jun 04  2022: 10.0 (1 night)</title></rect><rect x="86.360714" y="185.308000" width="1.350000" height="1.692000" fill="#7B8AE6"><title>Jun 04  2023: 6.0 (1 night)</title></rect><rect x="87.149675" y="185.872000" width="1.350000" height="1.128000" fill="#00A0D6"><title>Jun 05  2022: 4.0 (1 night)</title></rect><rect x="88.649675" y="182.770000" width="1.350000" height="4.230000" fill="#7B8AE6"><title>Jun 05  2023: 15.0 (1 night)</title></rect><rect x="89.438636" y="187.000000" width="1.350000" height="0.000000" fill="#00A0D6"><title>Jun 06  2022: 0.0 (1 night)</title></rect><rect x="90.938636" y="185.026000" width="1.350000" height="1.974000" fill="#7B8AE6"><title>Jun 06  2023: 7.0 (1 night)</title></rect><rect x="91.727597" y="187.000000" width="1.350000" height="0.000000" fill="#00A0D6"><title>Jun 07  2022: 0.0 (1 night)</title></rect><rect x="93.227597" y="183.898000" width="1.350000" height="3.102000" fill="#7B8AE6"><title>Jun 07  2023: 11.0 (1 night)</title></rect><rect x="94.016558" y="187.000000" width="1.350000" height="0.000000" fill="#00A0D6"><title>Jun 08  2022: 0.0 (1 night)</title></rect><rect x="95.516558" y="180.232000" width="1.350000" height="6.768000" fill="#7B8AE6"><title>Jun 08  2023: 24.0 (1 night)</title></rect><rect x="96.305519" y="187.000000" width="1.350000" height="0.000000" fill="#00A0D6"><title>Jun 09  2022: 0.0 (1 night)</title></rect><rect x="97.805519" y="179.104000" width="1.350000" height="7.896000" fill="#7B8AE6"><title>Jun 09  2023: 28.0 (1 night)</title></rect><rect x="98.594481" y="187.000000" width="1.350000" height="0.000000" fill="#00A0D6"><title>Jun 10  2022: 0.0 (1 night)</title></rect><rect x="100.094481" y="176.002000" width="1.350000" height="10.998000" fill="#7B8AE6"><title>Jun 10  2023: 39.0 (1 night)</title></rect><rect x="100.883442" y="184.744000" width="1.350000" height="2.256000" fill="#00A0D6"><title>Jun 11  2022: 8.0 (1 night)</title></rect><rect x="102.383442" y="185.590000" width="1.350000" height="1.410000" fill="#7B8AE6"><title>Jun 11  2023: 5.0 (1 night)</title></rect><rect x="103.172403" y="186.718000" width="1.350000" height="0.282000" fill="#00A0D6"><title>Jun 12  2022: 1.0 (1 night)</title></rect><rect x="104.672403" y="184.462000" width="1.350000" height="2.538000" fill="#7B8AE6"><title>Jun 12  2023: 9.0 (1 night)</title></rect><rect x="105.461364" y="187.000000" width="1.350000" height="0.000000" fill="#00A0D6"><title>Jun 13  2022: 0.0 (1 night)</title></rect><rect x="106.961364" y="184.462000" width="1.350000" height="2.538000" fill="#7B8AE6"><title>Jun 13  2023: 9.0 (1 night)</title></rect><rect x="107.750325" y="187.000000" width="1.350000" height="0.000000" fill="#00A0D6"><title>Jun 14  2022: 0.0 (1 night)</title></rect><rect x="109.250325" y="186.154000" width="1.350000" height="0.846000" fill="#7B8AE6"><title>Jun 14  2023: 3.0 (1 night)</title></rect><rect x="110.039286" y="187.000000" width="1.350000" height="0.000000" fill="#00A0D6"><title>Jun 15  2022: 0.0 (1 night)</title></rect><rect x="111.539286" y="179.104000" width="1.350000" height="7.896000" fill="#7B8AE6"><title>Jun 15  2023: 28.0 (1 night)</title></rect><rect x="112.328247" y="186.436000" width="1.350000" height="0.564000" fill="#00A0D6"><title>Jun 16  2022: 2.0 (1 night)</title></rect><rect x="113.828247" y="182.488000" width="1.350000" height="4.512000" fill="#7B8AE6"><title>Jun 16  2023: 16.0 (1 night)</title></rect><rect x="114.617208" y="187.000000" width="1.350000" height="0.000000" fill="#00A0D6"><title>Jun 17  2022: 0.0 (1 night)</title></rect><rect x="116.117208" y="185.872000" width="1.350000" height="1.128000" fill="#7B8AE6"><title>Jun 17  2023: 4.0 (1 night)</title></rect><rect x="116.906169" y="186.718000" width="1.350000" height="0.282000" fill="#00A0D6"><title>Jun 18  2022: 1.0 (1 night)</title></rect><rect x="118.406169" y="187.000000" width="1.350000" height="0.000000" fill="#7B8AE6"><title>Jun 18  2023: 0.0 (1 night)</title></rect><rect x="119.195130" y="187.000000" width="1.350000" height="0.000000" fill="#00A0D6"><title>Jun 19  2022: 0.0 (1 night)</title></rect><rect x="120.695130" y="187.000000" width="1.350000" height="0.000000" fill="#7B8AE6"><title>Jun 19  2023: 0.0 (1 night)</title></rect><rect x="121.484091" y="187.000000" width="1.350000" height="0.000000" fill="#00A0D6"><title>Jun 20  2022: 0.0 (1 night)</title></rect><rect x="122.984091" y="187.000000" width="1.350000" height="0.000000" fill="#7B8AE6"><title>Jun 20  2023: 0.0 (1 night)</title></rect><rect x="123.773052" y="187.000000" width="1.350000" height="0.000000" fill="#00A0D6"><title>Jun 21  2022: 0.0 (1 night)</title></rect><rect x="125.273052" y="187.000000" width="1.350000" height="0.000000" fill="#7B8AE6"><title>Jun 21  2023: 0.0 (1 night)</title></rect><rect x="126.062013" y="186.718000" width="1.350000" height="0.282000" fill="#00A0D6"><title>Jun 22  2022: 1.0 (1 night)</title></rect><rect x="127.562013" y="178.540000" width="1.350000" height="8.460000" fill="#7B8AE6"><title>Jun 22  2023: 30.0 (1 night)</title></rect><rect x="128.350974" y="187.000000" width="1.350000" height="0.000000" fill="#00A0D6"><title>Jun 23  2022: 0.0 (1 night)</title></rect><rect x="129.850974" y="178.822000" width="1.350000" height="8.178000" fill="#7B8AE6"><title>Jun 23  2023: 29.0 (1 night)</title></rect><rect x="130.639935" y="187.000000" width="1.350000" height="0.000000" fill="#00A0D6"><title>Jun 24  2022: 0.0 (1 night)</title></rect><rect x="132.139935" y="177.694000" width="1.350000" height="9.306000" fill="#7B8AE6"><title>Jun 24  2023: 33.0 (1 night)</title></rect><rect x="132.928896" y="187.000000" width="1.350000" height="0.000000" fill="#00A0D6"><title>Jun 25  2022: 0.0 (1 night)</title></rect><rect x="134.428896" y="178.822000" width="1.350000" height="8.178000" fill="#7B8AE6"><title>Jun 25  2023: 29.0 (1 night)</title></rect><rect x="135.217857" y="186.436000" width="1.350000" height="0.564000" fill="#00A0D6"><title>Jun 26  2022: 2.0 (1 night)</title></rect><rect x="136.717857" y="175.156000" width="1.350000" height="11.844000" fill="#7B8AE6"><title>Jun 26  2023: 42.0 (1 night)</title></rect><rect x="137.506818" y="186.436000" width="1.350000" height="0.564000" fill="#00A0D6"><title>Jun 27  2022: 2.0 (1 night)</title></rect><rect x="139.006818" y="183.898000" width="1.350000" height="3.102000" fill="#7B8AE6"><title>Jun 27  2023: 11.0 (1 night)</title></rect><rect x="139.795779" y="185.026000" width="1.350000" height="1.974000" fill="#00A0D6"><title>Jun 28  2022: 7.0 (1 night)</title></rect><rect x="141.295779" y="183.052000" width="1.350000" height="3.948000" fill="#7B8AE6"><title>Jun 28  2023: 14.0 (1 night)</title></rect><rect x="142.084740" y="183.334000" width="1.350000" height="3.666000" fill="#00A0D6"><title>Jun 29  2022: 13.0 (1 night)</title></rect><rect x="143.584740" y="183.052000" width="1.350000" height="3.948000" fill="#7B8AE6"><title>Jun 29  2023: 14.0 (1 night)</title></rect><rect x="144.373701" y="187.000000" width="1.350000" height="0.000000" fill="#00A0D6"><title>Jun 30  2022: 0.0 (1 night)</title></rect><rect x="145.873701" y="181.924000" width="1.350000" height="5.076000" fill="#7B8AE6"><title>Jun 30  2023: 18.0 (1 night)</title></rect><rect x="146.662662" y="184.744000" width="1.350000" height="2.256000" fill="#00A0D6"><title>Jul 01  2022: 8.0 (1 night)</title></rect><rect x="148.162662" y="185.026000" width="1.350000" height="1.974000" fill="#7B8AE6"><title>Jul 01  2023: 7.0 (1 night)</title></rect><rect x="148.951623" y="185.026000" width="1.350000" height="1.974000" fill="#00A0D6"><title>Jul 02  2022: 7.0 (1 night)</title></rect><rect x="150.451623" y="183.052000" width="1.350000" height="3.948000" fill="#7B8AE6"><title>Jul 02  2023: 14.0 (1 night)</title></rect><rect x="151.240584" y="184.744000" width="1.350000" height="2.256000" fill="#00A0D6"><title>Jul 03  2022: 8.0 (1 night)</title></rect><rect x="152.740584" y="185.872000" width="1.350000" height="1.128000" fill="#7B8AE6"><title>Jul 03  2023: 4.0 (1 night)</title></rect><rect x="153.529545" y="187.000000" width="1.350000" height="0.000000" fill="#00A0D6"><title>Jul 04  2022: 0.0 (1 night)</title></rect><rect x="155.029545" y="175.438000" width="1.350000" height="11.562000" fill="#7B8AE6"><title>Jul 04  2023: 41.0 (1 night)</title></rect><rect x="155.818506" y="187.000000" width="1.350000" height="0.000000" fill="#00A0D6"><title>Jul 05  2022: 0.0 (1 night)</title></rect><rect x="157.318506" y="182.488000" width="1.350000" height="4.512000" fill="#7B8AE6"><title>Jul 05  2023: 16.0 (1 night)</title></rect><rect x="158.107468" y="185.590000" width="1.350000" height="1.410000" fill="#00A0D6"><title>Jul 06  2022: 5.0 (1 night)</title></rect><rect x="159.607468" y="181.924000" width="1.350000" height="5.076000" fill="#7B8AE6"><title>Jul 06  2023: 18.0 (1 night)</title></rect><rect x="160.396429" y="184.180000" width="1.350000" height="2.820000" fill="#00A0D6"><title>Jul 07  2022: 10.0 (1 night)</title></rect><rect x="161.896429" y="176.002000" width="1.350000" height="10.998000" fill="#7B8AE6"><title>Jul 07  2023: 39.0 (1 night)</title></rect><rect x="162.685390" y="183.052000" width="1.350000" height="3.948000" fill="#00A0D6"><title>Jul 08  2022: 14.0 (1 night)</title></rect><rect x="164.185390" y="164.440000" width="1.350000" height="22.560000" fill="#7B8AE6"><title>Jul 08  2023: 80.0 (1 night)</title></rect><rect x="164.974351" y="184.180000" width="1.350000" height="2.820000" fill="#00A0D6"><title>Jul 09  2022: 10.0 (1 night)</title></rect><rect x="166.474351" y="171.772000" width="1.350000" height="15.228000" fill="#7B8AE6"><title>Jul 09  2023: 54.0 (1 night)</title></rect><rect x="167.263312" y="180.232000" width="1.350000" height="6.768000" fill="#00A0D6"><title>Jul 10  2022: 24.0 (1 night)</title></rect><rect x="168.763312" y="165.568000" width="1.350000" height="21.432000" fill="#7B8AE6"><title>Jul 10  2023: 76.0 (1 night)</title></rect><rect x="169.552273" y="173.182000" width="1.350000" height="13.818000" fill="#00A0D6"><title>Jul 11  2022: 49.0 (1 night)</title></rect><rect x="171.052273" y="157.954000" width="1.350000" height="29.046000" fill="#7B8AE6"><title>Jul 11  2023: 103.0 (1 night)</title></rect><rect x="171.841234" y="168.670000" width="1.350000" height="18.330000" fill="#00A0D6"><title>Jul 12  2022: 65.0 (1 night)</title></rect><rect x="173.341234" y="168.952000" width="1.350000" height="18.048000" fill="#7B8AE6"><title>Jul 12  2023: 64.0 (1 night)</title></rect><rect x="174.130195" y="184.180000" width="1.350000" height="2.820000" fill="#00A0D6"><title>Jul 13  2022: 10.0 (1 night)</title></rect><rect x="175.630195" y="155.698000" width="1.350000" height="31.302000" fill="#7B8AE6"><title>Jul 13  2023: 111.0 (1 night)</title></rect><rect x="176.419156" y="168.952000" width="1.350000" height="18.048000" fill="#00A0D6"><title>Jul 14  2022: 64.0 (1 night)</title></rect><rect x="177.919156" y="171.208000" width="1.350000" height="15.792000" fill="#7B8AE6"><title>Jul 14  2023: 56.0 (1 night)</title></rect><rect x="178.708117" y="185.308000" width="1.350000" height="1.692000" fill="#00A0D6"><title>Jul 15  2022: 6.0 (1 night)</title></rect><rect x="180.208117" y="171.772000" width="1.350000" height="15.228000" fill="#7B8AE6"><title>Jul 15  2023: 54.0 (1 night)</title></rect><rect x="180.997078" y="179.668000" width="1.350000" height="7.332000" fill="#00A0D6"><title>Jul 16  2022: 26.0 (1 night)</title></rect><rect x="182.497078" y="165.004000" width="1.350000" height="21.996000" fill="#7B8AE6"><title>Jul 16  2023: 78.0 (1 night)</title></rect><rect x="183.286039" y="183.052000" width="1.350000" height="3.948000" fill="#00A0D6"><title>Jul 17  2022: 14.0 (1 night)</title></rect><rect x="184.786039" y="168.388000" width="1.350000" height="18.612000" fill="#7B8AE6"><title>Jul 17  2023: 66.0 (1 night)</title></rect><rect x="185.575000" y="184.180000" width="1.350000" height="2.820000" fill="#00A0D6"><title>Jul 18  2022: 10.0 (1 night)</title></rect><rect x="187.075000" y="170.080000" width="1.350000" height="16.920000" fill="#7B8AE6"><title>Jul 18  2023: 60.0 (1 night)</title></rect><rect x="187.863961" y="161.620000" width="1.350000" height="25.380000" fill="#00A0D6"><title>Jul 19  2022: 90.0 (1 night)</title></rect><rect x="189.363961" y="175.720000" width="1.350000" height="11.280000" fill="#7B8AE6"><title>Jul 19  2023: 40.0 (1 night)</title></rect><rect x="190.152922" y="181.642000" width="1.350000" height="5.358000" fill="#00A0D6"><title>Jul 20  2022: 19.0 (1 night)</title></rect><rect x="191.652922" y="152.032000" width="1.350000" height="34.968000" fill="#7B8AE6"><title>Jul 20  2023: 124.0 (1 night)</title></rect><rect x="192.441883" y="176.002000" width="1.350000" height="10.998000" fill="#00A0D6"><title>Jul 21  2022: 39.0 (1 night)</title></rect><rect x="193.941883" y="164.722000" width="1.350000" height="22.278000" fill="#7B8AE6"><title>Jul 21  2023: 79.0 (1 night)</title></rect><rect x="194.730844" y="181.078000" width="1.350000" height="5.922000" fill="#00A0D6"><title>Jul 22  2022: 21.0 (1 night)</title></rect><rect x="196.230844" y="174.310000" width="1.350000" height="12.690000" fill="#7B8AE6"><title>Jul 22  2023: 45.0 (1 night)</title></rect><rect x="197.019805" y="181.924000" width="1.350000" height="5.076000" fill="#00A0D6"><title>Jul 23  2022: 18.0 (1 night)</title></rect><rect x="198.519805" y="66.304000" width="1.350000" height="120.696000" fill="#7B8AE6"><title>Jul 23  2023: 428.0 (1 night)</title></rect><rect x="199.308766" y="184.180000" width="1.350000" height="2.820000" fill="#00A0D6"><title>Jul 24  2022: 10.0 (1 night)</title></rect><rect x="200.808766" y="147.520000" width="1.350000" height="39.480000" fill="#7B8AE6"><title>Jul 24  2023: 140.0 (1 night)</title></rect><rect x="201.597727" y="179.668000" width="1.350000" height="7.332000" fill="#00A0D6"><title>Jul 25  2022: 26.0 (1 night)</title></rect><rect x="203.097727" y="162.184000" width="1.350000" height="24.816000" fill="#7B8AE6"><title>Jul 25  2023: 88.0 (1 night)</title></rect><rect x="203.886688" y="179.386000" width="1.350000" height="7.614000" fill="#00A0D6"><title>Jul 26  2022: 27.0 (1 night)</title></rect><rect x="205.386688" y="184.744000" width="1.350000" height="2.256000" fill="#7B8AE6"><title>Jul 26  2023: 8.0 (1 night)</title></rect><rect x="206.175649" y="180.514000" width="1.350000" height="6.486000" fill="#00A0D6"><title>Jul 27  2022: 23.0 (1 night)</title></rect><rect x="207.675649" y="173.464000" width="1.350000" height="13.536000" fill="#7B8AE6"><title>Jul 27  2023: 48.0 (1 night)</title></rect><rect x="208.464610" y="176.284000" width="1.350000" height="10.716000" fill="#00A0D6"><title>Jul 28  2022: 38.0 (1 night)</title></rect><rect x="209.964610" y="171.208000" width="1.350000" height="15.792000" fill="#7B8AE6"><title>Jul 28  2023: 56.0 (1 night)</title></rect><rect x="210.753571" y="168.106000" width="1.350000" height="18.894000" fill="#00A0D6"><title>Jul 29  2022: 67.0 (1 night)</title></rect><rect x="212.253571" y="176.002000" width="1.350000" height="10.998000" fill="#7B8AE6"><title>Jul 29  2023: 39.0 (1 night)</title></rect><rect x="213.042532" y="175.720000" width="1.350000" height="11.280000" fill="#00A0D6"><title>Jul 30  2022: 40.0 (1 night)</title></rect><rect x="214.542532" y="179.950000" width="1.350000" height="7.050000" fill="#7B8AE6"><title>Jul 30  2023: 25.0 (1 night)</title></rect><rect x="215.331494" y="176.002000" width="1.350000" height="10.998000" fill="#00A0D6"><title>Jul 31  2022: 39.0 (1 night)</title></rect><rect x="216.831494" y="172.618000" width="1.350000" height="14.382000" fill="#7B8AE6"><title>Jul 31  2023: 51.0 (1 night)</title></rect><rect x="217.620455" y="166.132000" width="1.350000" height="20.868000" fill="#00A0D6"><title>Aug 01  2022: 74.0 (1 night)</title></rect><rect x="219.120455" y="172.054000" width="1.350000" height="14.946000" fill="#7B8AE6"><title>Aug 01  2023: 53.0 (1 night)</title></rect><rect x="219.909416" y="130.036000" width="1.350000" height="56.964000" fill="#00A0D6"><title>Aug 02  2022: 202.0 (1 night)</title></rect><rect x="221.409416" y="131.446000" width="1.350000" height="55.554000" fill="#7B8AE6"><title>Aug 02  2023: 197.0 (1 night)</title></rect><rect x="222.198377" y="109.732000" width="1.350000" height="77.268000" fill="#00A0D6"><title>Aug 03  2022: 274.0 (1 night)</title></rect><rect x="223.698377" y="133.702000" width="1.350000" height="53.298000" fill="#7B8AE6"><title>Aug 03  2023: 189.0 (1 night)</title></rect><rect x="224.487338" y="139.906000" width="1.350000" height="47.094000" fill="#00A0D6"><title>Aug 04  2022: 167.0 (1 night)</title></rect><rect x="225.987338" y="143.854000" width="1.350000" height="43.146000" fill="#7B8AE6"><title>Aug 04  2023: 153.0 (1 night)</title></rect><rect x="226.776299" y="138.214000" width="1.350000" height="48.786000" fill="#00A0D6"><title>Aug 05  2022: 173.0 (1 night)</title></rect><rect x="228.276299" y="123.832000" width="1.350000" height="63.168000" fill="#7B8AE6"><title>Aug 05  2023: 224.0 (1 night)</title></rect><rect x="229.065260" y="177.976000" width="1.350000" height="9.024000" fill="#00A0D6"><title>Aug 06  2022: 32.0 (1 night)</title></rect><rect x="230.565260" y="141.880000" width="1.350000" height="45.120000" fill="#7B8AE6"><title>Aug 06  2023: 160.0 (1 night)</title></rect><rect x="231.354221" y="130.318000" width="1.350000" height="56.682000" fill="#00A0D6"><title>Aug 07  2022: 201.0 (1 night)</title></rect><rect x="232.854221" y="117.064000" width="1.350000" height="69.936000" fill="#7B8AE6"><title>Aug 07  2023: 248.0 (1 night)</title></rect><rect x="233.643182" y="141.034000" width="1.350000" height="45.966000" fill="#00A0D6"><title>Aug 08  2022: 163.0 (1 night)</title></rect><rect x="235.143182" y="99.016000" width="1.350000" height="87.984000" fill="#7B8AE6"><title>Aug 08  2023: 312.0 (1 night)</title></rect><rect x="235.932143" y="136.240000" width="1.350000" height="50.760000" fill="#00A0D6"><title>Aug 09  2022: 180.0 (1 night)</title></rect><rect x="237.432143" y="161.620000" width="1.350000" height="25.380000" fill="#7B8AE6"><title>Aug 09  2023: 90.0 (1 night)</title></rect><rect x="238.221104" y="140.188000" width="1.350000" height="46.812000" fill="#00A0D6"><title>Aug 10  2022: 166.0 (1 night)</title></rect><rect x="239.721104" y="81.250000" width="1.350000" height="105.750000" fill="#7B8AE6"><title>Aug 10  2023: 375.0 (1 night)</title></rect><rect x="240.510065" y="93.658000" width="1.350000" height="93.342000" fill="#00A0D6"><title>Aug 11  2022: 331.0 (1 night)</title></rect><rect x="242.010065" y="147.520000" width="1.350000" height="39.480000" fill="#7B8AE6"><title>Aug 11  2023: 140.0 (1 night)</title></rect><rect x="242.799026" y="154.006000" width="1.350000" height="32.994000" fill="#00A0D6"><title>Aug 12  2022: 117.0 (1 night)</title></rect><rect x="244.299026" y="132.010000" width="1.350000" height="54.990000" fill="#7B8AE6"><title>Aug 12  2023: 195.0 (1 night)</title></rect><rect x="245.087987" y="137.086000" width="1.350000" height="49.914000" fill="#00A0D6"><title>Aug 13  2022: 177.0 (1 night)</title></rect><rect x="246.587987" y="131.164000" width="1.350000" height="55.836000" fill="#7B8AE6"><title>Aug 13  2023: 198.0 (1 night)</title></rect><rect x="247.376948" y="67.996000" width="1.350000" height="119.004000" fill="#00A0D6"><title>Aug 14  2022: 422.0 (1 night)</title></rect><rect x="248.876948" y="105.784000" width="1.350000" height="81.216000" fill="#7B8AE6"><title>Aug 14  2023: 288.0 (1 night)</title></rect><rect x="249.665909" y="154.006000" width="1.350000" height="32.994000" fill="#00A0D6"><title>Aug 15  2022: 117.0 (1 night)</title></rect><rect x="251.165909" y="83.788000" width="1.350000" height="103.212000" fill="#7B8AE6"><title>Aug 15  2023: 366.0 (1 night)</title></rect><rect x="251.954870" y="156.544000" width="1.350000" height="30.456000" fill="#00A0D6"><title>Aug 16  2022: 108.0 (1 night)</title></rect><rect x="253.454870" y="85.480000" width="1.350000" height="101.520000" fill="#7B8AE6"><title>Aug 16  2023: 360.0 (1 night)</title></rect><rect x="254.243831" y="137.932000" width="1.350000" height="49.068000" fill="#00A0D6"><title>Aug 17  2022: 174.0 (1 night)</title></rect><rect x="255.743831" y="122.422000" width="1.350000" height="64.578000" fill="#7B8AE6"><title>Aug 17  2023: 229.0 (1 night)</title></rect><rect x="256.532792" y="163.876000" width="1.350000" height="23.124000" fill="#00A0D6"><title>Aug 18  2022: 82.0 (1 night)</title></rect><rect x="258.032792" y="168.106000" width="1.350000" height="18.894000" fill="#7B8AE6"><title>Aug 18  2023: 67.0 (1 night)</title></rect><rect x="258.821753" y="160.210000" width="1.350000" height="26.790000" fill="#00A0D6"><title>Aug 19  2022: 95.0 (1 night)</title></rect><rect x="260.321753" y="142.444000" width="1.350000" height="44.556000" fill="#7B8AE6"><title>Aug 19  2023: 158.0 (1 night)</title></rect><rect x="261.110714" y="110.860000" width="1.350000" height="76.140000" fill="#00A0D6"><title>Aug 20  2022: 270.0 (1 night)</title></rect><rect x="262.610714" y="129.472000" width="1.350000" height="57.528000" fill="#7B8AE6"><title>Aug 20  2023: 204.0 (1 night)</title></rect><rect x="263.399675" y="170.926000" width="1.350000" height="16.074000" fill="#00A0D6"><title>Aug 21  2022: 57.0 (1 night)</title></rect><rect x="264.899675" y="172.900000" width="1.350000" height="14.100000" fill="#7B8AE6"><title>Aug 21  2023: 50.0 (1 night)</title></rect><rect x="265.688636" y="157.390000" width="1.350000" height="29.610000" fill="#00A0D6"><title>Aug 22  2022: 105.0 (1 night)</title></rect><rect x="267.188636" y="181.360000" width="1.350000" height="5.640000" fill="#7B8AE6"><title>Aug 22  2023: 20.0 (1 night)</title></rect><rect x="267.977597" y="179.668000" width="1.350000" height="7.332000" fill="#00A0D6"><title>Aug 23  2022: 26.0 (1 night)</title></rect><rect x="269.477597" y="165.004000" width="1.350000" height="21.996000" fill="#7B8AE6"><title>Aug 23  2023: 78.0 (1 night)</title></rect><rect x="270.266558" y="159.646000" width="1.350000" height="27.354000" fill="#00A0D6"><title>Aug 24  2022: 97.0 (1 night)</title></rect><rect x="271.766558" y="163.312000" width="1.350000" height="23.688000" fill="#7B8AE6"><title>Aug 24  2023: 84.0 (1 night)</title></rect><rect x="272.555519" y="118.474000" width="1.350000" height="68.526000" fill="#00A0D6"><title>Aug 25  2022: 243.0 (1 night)</title></rect><rect x="274.055519" y="146.674000" width="1.350000" height="40.326000" fill="#7B8AE6"><title>Aug 25  2023: 143.0 (1 night)</title></rect><rect x="274.844481" y="144.418000" width="1.350000" height="42.582000" fill="#00A0D6"><title>Aug 26  2022: 151.0 (1 night)</title></rect><rect x="276.344481" y="166.132000" width="1.350000" height="20.868000" fill="#7B8AE6"><title>Aug 26  2023: 74.0 (1 night)</title></rect><rect x="277.133442" y="113.962000" width="1.350000" height="73.038000" fill="#00A0D6"><title>Aug 27  2022: 259.0 (1 night)</title></rect><rect x="278.633442" y="154.288000" width="1.350000" height="32.712000" fill="#7B8AE6"><title>Aug 27  2023: 116.0 (1 night)</title></rect><rect x="279.422403" y="137.086000" width="1.350000" height="49.914000" fill="#00A0D6"><title>Aug 28  2022: 177.0 (1 night)</title></rect><rect x="280.922403" y="163.312000" width="1.350000" height="23.688000" fill="#7B8AE6"><title>Aug 28  2023: 84.0 (1 night)</title></rect><rect x="281.711364" y="172.900000" width="1.350000" height="14.100000" fill="#00A0D6"><title>Aug 29  2022: 50.0 (1 night)</title></rect><rect x="283.211364" y="160.492000" width="1.350000" height="26.508000" fill="#7B8AE6"><title>Aug 29  2023: 94.0 (1 night)</title></rect><rect x="284.000325" y="88.018000" width="1.350000" height="98.982000" fill="#00A0D6"><title>Aug 30  2022: 351.0 (1 night)</title></rect><rect x="285.500325" y="165.004000" width="1.350000" height="21.996000" fill="#7B8AE6"><title>Aug 30  2023: 78.0 (1 night)</title></rect><rect x="286.289286" y="162.466000" width="1.350000" height="24.534000" fill="#00A0D6"><title>Aug 31  2022: 87.0 (1 night)</title></rect><rect x="287.789286" y="167.260000" width="1.350000" height="19.740000" fill="#7B8AE6"><title>Aug 31  2023: 70.0 (1 night)</title></rect><rect x="288.578247" y="111.142000" width="1.350000" height="75.858000" fill="#00A0D6"><title>Sep 01  2022: 269.0 (1 night)</title></rect><rect x="290.078247" y="136.804000" width="1.350000" height="50.196000" fill="#7B8AE6"><title>Sep 01  2023: 178.0 (1 night)</title></rect><rect x="290.867208" y="130.318000" width="1.350000" height="56.682000" fill="#00A0D6"><title>Sep 02  2022: 201.0 (1 night)</title></rect><rect x="292.367208" y="169.798000" width="1.350000" height="17.202000" fill="#7B8AE6"><title>Sep 02  2023: 61.0 (1 night)</title></rect><rect x="293.156169" y="111.424000" width="1.350000" height="75.576000" fill="#00A0D6"><title>Sep 03  2022: 268.0 (1 night)</title></rect><rect x="294.656169" y="144.982000" width="1.350000" height="42.018000" fill="#7B8AE6"><title>Sep 03  2023: 149.0 (1 night)</title></rect><rect x="295.445130" y="148.366000" width="1.350000" height="38.634000" fill="#00A0D6"><title>Sep 04  2022: 137.0 (1 night)</title></rect><rect x="296.945130" y="172.618000" width="1.350000" height="14.382000" fill="#7B8AE6"><title>Sep 04  2023: 51.0 (1 night)</title></rect><rect x="297.734091" y="142.162000" width="1.350000" height="44.838000" fill="#00A0D6"><title>Sep 05  2022: 159.0 (1 night)</title></rect><rect x="299.234091" y="179.950000" width="1.350000" height="7.050000" fill="#7B8AE6"><title>Sep 05  2023: 25.0 (1 night)</title></rect><rect x="300.023052" y="167.260000" width="1.350000" height="19.740000" fill="#00A0D6"><title>Sep 06  2022: 70.0 (1 night)</title></rect><rect x="301.523052" y="182.206000" width="1.350000" height="4.794000" fill="#7B8AE6"><title>Sep 06  2023: 17.0 (1 night)</title></rect><rect x="302.312013" y="142.726000" width="1.350000" height="44.274000" fill="#00A0D6"><title>Sep 07  2022: 157.0 (1 night)</title></rect><rect x="303.812013" y="179.668000" width="1.350000" height="7.332000" fill="#7B8AE6"><title>Sep 07  2023: 26.0 (1 night)</title></rect><rect x="304.600974" y="166.978000" width="1.350000" height="20.022000" fill="#00A0D6"><title>Sep 08  2022: 71.0 (1 night)</title></rect><rect x="306.100974" y="182.206000" width="1.350000" height="4.794000" fill="#7B8AE6"><title>Sep 08  2023: 17.0 (1 night)</title></rect><rect x="306.889935" y="178.540000" width="1.350000" height="8.460000" fill="#00A0D6"><title>Sep 09  2022: 30.0 (1 night)</title></rect><rect x="308.389935" y="179.668000" width="1.350000" height="7.332000" fill="#7B8AE6"><title>Sep 09  2023: 26.0 (1 night)</title></rect><rect x="309.178896" y="179.386000" width="1.350000" height="7.614000" fill="#00A0D6"><title>Sep 10  2022: 27.0 (1 night)</title></rect><rect x="310.678896" y="183.052000" width="1.350000" height="3.948000" fill="#7B8AE6"><title>Sep 10  2023: 14.0 (1 night)</title></rect><rect x="311.467857" y="175.156000" width="1.350000" height="11.844000" fill="#00A0D6"><title>Sep 11  2022: 42.0 (1 night)</title></rect><rect x="312.967857" y="187.000000" width="1.350000" height="0.000000" fill="#7B8AE6"><title>Sep 11  2023: 0.0 (1 night)</title></rect><text x="61.107143" y="199.000000" font-size="9" fill="#555" text-anchor="end" font-family="sans-serif" transform="rotate(-40 61.107143 199.000000)">May 24</text><text x="97.730519" y="199.000000" font-size="9" fill="#555" text-anchor="end" font-family="sans-serif" transform="rotate(-40 97.730519 199.000000)">Jun 09</text><text x="132.064935" y="199.000000" font-size="9" fill="#555" text-anchor="end" font-family="sans-serif" transform="rotate(-40 132.064935 199.000000)">Jun 24</text><text x="168.688312" y="199.000000" font-size="9" fill="#555" text-anchor="end" font-family="sans-serif" transform="rotate(-40 168.688312 199.000000)">Jul 10</text><text x="205.311688" y="199.000000" font-size="9" fill="#555" text-anchor="end" font-family="sans-serif" transform="rotate(-40 205.311688 199.000000)">Jul 26</text><text x="241.935065" y="199.000000" font-size="9" fill="#555" text-anchor="end" font-family="sans-serif" transform="rotate(-40 241.935065 199.000000)">Aug 11</text><text x="276.269481" y="199.000000" font-size="9" fill="#555" text-anchor="end" font-family="sans-serif" transform="rotate(-40 276.269481 199.000000)">Aug 26</text><text x="312.892857" y="199.000000" font-size="9" fill="#555" text-anchor="end" font-family="sans-serif" transform="rotate(-40 312.892857 199.000000)">Sep 11</text><text x="11" y="116.500000" font-size="9" fill="#555" text-anchor="middle" font-family="sans-serif" transform="rotate(-90 11 116.500000)">Recordings / night</text></svg>
