<svg width="340" height="200" viewBox="0 0 340 200" xmlns="http://www.w3.org/2000/svg"><path d="M 86.000000 94.000000 L 86.000000 24.000000 A 70.000000 70.000000 0 1 1 32.604946 48.734470 Z" fill="#bbbbbb" stroke="#ffffff" stroke-width="1"><title>NOID: 2,322 (86.2%)</title></path><path d="M 86.000000 94.000000 L 32.604946 48.734470 A 70.000000 70.000000 0 0 1 45.040164 37.234766 Z" fill="#bbbbbb" stroke="#ffffff" stroke-width="1"><title>EPFULANO: 104 (3.9%)</title></path><path d="M 86.000000 94.000000 L 45.040164 37.234766 A 70.000000 70.000000 0 0 1 59.722045 29.119579 Z" fill="#bbbbbb" stroke="#ffffff" stroke-width="1"><title>40KMYO: 103 (3.8%)</title></path><path d="M 86.000000 94.000000 L 59.722045 29.119579 A 70.000000 70.000000 0 0 1 69.028507 26.088525 Z" fill="#06D6A0" stroke="#ffffff" stroke-width="1"><title>LACI: 60 (2.2%)</title></path><path d="M 86.000000 94.000000 L 69.028507 26.088525 A 70.000000 70.000000 0 0 1 78.017652 24.456617 Z" fill="#59A14F" stroke="#ffffff" stroke-width="1"><title>MYLU: 56 (2.1%)</title></path><path d="M 86.000000 94.000000 L 78.017652 24.456617 A 70.000000 70.000000 0 0 1 81.594887 24.138745 Z" fill="#bbbbbb" stroke="#ffffff" stroke-width="1"><title>LABOMYLU: 22 (0.8%)</title></path><path d="M 86.000000 94.000000 L 81.594887 24.138745 A 70.000000 70.000000 0 0 1 84.367546 24.019038 Z" fill="#F28E2B" stroke="#ffffff" stroke-width="1"><title>EPFU: 17 (0.6%)</title></path><path d="M 86.000000 94.000000 L 84.367546 24.019038 A 70.000000 70.000000 0 0 1 85.836740 24.000190 Z" fill="#E15759" stroke="#ffffff" stroke-width="1"><title>LANO: 9 (0.3%)</title></path><path d="M 86.000000 94.000000 L 85.836740 24.000190 A 70.000000 70.000000 0 0 1 86.000000 24.000000 Z" fill="#8338EC" stroke="#ffffff" stroke-width="1"><title>LABO: 1 (0.0%)</title></path><rect x="174.000000" y="20.500000" width="10" height="10" rx="2" fill="#bbbbbb" stroke="#999999" stroke-width="0.5"/><text x="189.000000" y="29.500000" font-size="10" fill="#333333" font-family="sans-serif"><tspan font-weight="bold">NOID</tspan>  2,322 (86.2%)</text><rect x="174.000000" y="37.500000" width="10" height="10" rx="2" fill="#bbbbbb" stroke="#999999" stroke-width="0.5"/><text x="189.000000" y="46.500000" font-size="10" fill="#333333" font-family="sans-serif"><tspan font-weight="bold">EPFULANO</tspan>  104 (3.9%)</text><rect x="174.000000" y="54.500000" width="10" height="10" rx="2" fill="#bbbbbb" stroke="#999999" stroke-width="0.5"/><text x="189.000000" y="63.500000" font-size="10" fill="#333333" font-family="sans-serif"><tspan font-weight="bold">40KMYO</tspan>  103 (3.8%)</text><rect x="174.000000" y="71.500000" width="10" height="10" rx="2" fill="#06D6A0" stroke="#999999" stroke-width="0.5"/><text x="189.000000" y="80.500000" font-size="10" fill="#333333" font-family="sans-serif"><tspan font-weight="bold">LACI</tspan>  60 (2.2%)</text><rect x="174.000000" y="88.500000" width="10" height="10" rx="2" fill="#59A14F" stroke="#999999" stroke-width="0.5"/><text x="189.000000" y="97.500000" font-size="10" fill="#333333" font-family="sans-serif"><tspan font-weight="bold">MYLU</tspan>  56 (2.1%)</text><rect x="174.000000" y="105.500000" width="10" height="10" rx="2" fill="#bbbbbb" stroke="#999999" stroke-width="0.5"/><text x="189.000000" y="114.500000" font-size="10" fill="#333333" font-family="sans-serif"><tspan font-weight="bold">LABOMYLU</tspan>  22 (0.8%)</text><rect x="174.000000" y="122.500000" width="10" height="10" rx="2" fill="#F28E2B" stroke="#999999" stroke-width="0.5"/><text x="189.000000" y="131.500000" font-size="10" fill="#333333" font-family="sans-serif"><tspan font-weight="bold">EPFU</tspan>  17 (0.6%)</text><rect x="174.000000" y="139.500000" width="10" height="10" rx="2" fill="#E15759" stroke="#999999" stroke-width="0.5"/><text x="189.000000" y="148.500000" font-size="10" fill="#333333" font-family="sans-serif"><tspan font-weight="bold">LANO</tspan>  9 (0.3%)</text><rect x="174.000000" y="156.500000" width="10" height="10" rx="2" fill="#8338EC" stroke="#999999" stroke-width="0.5"/><text x="189.000000" y="165.500000" font-size="10" fill="#333333" font-family="sans-serif"><tspan font-weight="bold">LABO</tspan>  1 (0.0%)</text><text x="86.000000" y="196.000000" font-size="11" font-weight="bold" fill="#2c3e50" text-anchor="middle" font-family="sans-serif">Total bats: 2,694</text></svg>
