<svg width="340" height="200" viewBox="0 0 340 200" xmlns="http://www.w3.org/2000/svg"><path d="M 86.000000 94.000000 L 86.000000 24.000000 A 70.000000 70.000000 0 1 1 74.860207 24.892077 Z" fill="#bbbbbb" stroke="#ffffff" stroke-width="1"><title>NOID: 1,341 (97.5%)</title></path><path d="M 86.000000 94.000000 L 74.860207 24.892077 A 70.000000 70.000000 0 0 1 79.616107 24.291708 Z" fill="#E15759" stroke="#ffffff" stroke-width="1"><title>LANO: 15 (1.1%)</title></path><path d="M 86.000000 94.000000 L 79.616107 24.291708 A 70.000000 70.000000 0 0 1 82.804723 24.072965 Z" fill="#59A14F" stroke="#ffffff" stroke-width="1"><title>MYLU: 10 (0.7%)</title></path><path d="M 86.000000 94.000000 L 82.804723 24.072965 A 70.000000 70.000000 0 0 1 84.721516 24.011676 Z" fill="#06D6A0" stroke="#ffffff" stroke-width="1"><title>LACI: 6 (0.4%)</title></path><path d="M 86.000000 94.000000 L 84.721516 24.011676 A 70.000000 70.000000 0 0 1 85.680362 24.000730 Z" fill="#8338EC" stroke="#ffffff" stroke-width="1"><title>LABO: 3 (0.2%)</title></path><path d="M 86.000000 94.000000 L 85.680362 24.000730 A 70.000000 70.000000 0 0 1 86.000000 24.000000 Z" fill="#4E79A7" stroke="#ffffff" stroke-width="1"><title>MYEV: 1 (0.1%)</title></path><rect x="174.000000" y="46.000000" width="10" height="10" rx="2" fill="#bbbbbb" stroke="#999999" stroke-width="0.5"/><text x="189.000000" y="55.000000" font-size="10" fill="#333333" font-family="sans-serif"><tspan font-weight="bold">NOID</tspan>  1,341 (97.5%)</text><rect x="174.000000" y="63.000000" width="10" height="10" rx="2" fill="#E15759" stroke="#999999" stroke-width="0.5"/><text x="189.000000" y="72.000000" font-size="10" fill="#333333" font-family="sans-serif"><tspan font-weight="bold">LANO</tspan>  15 (1.1%)</text><rect x="174.000000" y="80.000000" width="10" height="10" rx="2" fill="#59A14F" stroke="#999999" stroke-width="0.5"/><text x="189.000000" y="89.000000" font-size="10" fill="#333333" font-family="sans-serif"><tspan font-weight="bold">MYLU</tspan>  10 (0.7%)</text><rect x="174.000000" y="97.000000" width="10" height="10" rx="2" fill="#06D6A0" stroke="#999999" stroke-width="0.5"/><text x="189.000000" y="106.000000" font-size="10" fill="#333333" font-family="sans-serif"><tspan font-weight="bold">LACI</tspan>  6 (0.4%)</text><rect x="174.000000" y="114.000000" width="10" height="10" rx="2" fill="#8338EC" stroke="#999999" stroke-width="0.5"/><text x="189.000000" y="123.000000" font-size="10" fill="#333333" font-family="sans-serif"><tspan font-weight="bold">LABO</tspan>  3 (0.2%)</text><rect x="174.000000" y="131.000000" width="10" height="10" rx="2" fill="#4E79A7" stroke="#999999" stroke-width="0.5"/><text x="189.000000" y="140.000000" font-size="10" fill="#333333" font-family="sans-serif"><tspan font-weight="bold">MYEV</tspan>  1 (0.1%)</text><text x="86.000000" y="196.000000" font-size="11" font-weight="bold" fill="#2c3e50" text-anchor="middle" font-family="sans-serif">Total bats: 1,376</text></svg>
