<svg width="340" height="200" viewBox="0 0 340 200" xmlns="http://www.w3.org/2000/svg"><path d="M 86.000000 94.000000 L 86.000000 24.000000 A 70.000000 70.000000 0 0 1 106.106585 161.050170 Z" fill="#bbbbbb" stroke="#ffffff" stroke-width="1"><title>NOID: 1,399 (45.4%)</title></path><path d="M 86.000000 94.000000 L 106.106585 161.050170 A 70.000000 70.000000 0 0 1 19.686293 71.583659 Z" fill="#59A14F" stroke="#ffffff" stroke-width="1"><title>MYLU: 1,074 (34.8%)</title></path><path d="M 86.000000 94.000000 L 19.686293 71.583659 A 70.000000 70.000000 0 0 1 29.841915 52.211610 Z" fill="#9B59B6" stroke="#ffffff" stroke-width="1"><title>MYVO: 154 (5.0%)</title></path><path d="M 86.000000 94.000000 L 29.841915 52.211610 A 70.000000 70.000000 0 0 1 45.248300 37.085161 Z" fill="#E15759" stroke="#ffffff" stroke-width="1"><title>LANO: 152 (4.9%)</title></path><path d="M 86.000000 94.000000 L 45.248300 37.085161 A 70.000000 70.000000 0 0 1 60.767850 28.705754 Z" fill="#8338EC" stroke="#ffffff" stroke-width="1"><title>LABO: 124 (4.0%)</title></path><path d="M 86.000000 94.000000 L 60.767850 28.705754 A 70.000000 70.000000 0 0 1 69.610293 25.945775 Z" fill="#F28E2B" stroke="#ffffff" stroke-width="1"><title>EPFU: 65 (2.1%)</title></path><path d="M 86.000000 94.000000 L 69.610293 25.945775 A 70.000000 70.000000 0 0 1 77.464428 24.522349 Z" fill="#F94144" stroke="#ffffff" stroke-width="1"><title>MYSE: 56 (1.8%)</title></path><path d="M 86.000000 94.000000 L 77.464428 24.522349 A 70.000000 70.000000 0 0 1 84.859135 24.009298 Z" fill="#06D6A0" stroke="#ffffff" stroke-width="1"><title>LACI: 52 (1.7%)</title></path><path d="M 86.000000 94.000000 L 84.859135 24.009298 A 70.000000 70.000000 0 0 1 86.000000 24.000000 Z" fill="#4E79A7" stroke="#ffffff" stroke-width="1"><title>MYEV: 8 (0.3%)</title></path><rect x="174.000000" y="20.500000" width="10" height="10" rx="2" fill="#bbbbbb" stroke="#999999" stroke-width="0.5"/><text x="189.000000" y="29.500000" font-size="10" fill="#333333" font-family="sans-serif"><tspan font-weight="bold">NOID</tspan>  1,399 (45.4%)</text><rect x="174.000000" y="37.500000" width="10" height="10" rx="2" fill="#59A14F" stroke="#999999" stroke-width="0.5"/><text x="189.000000" y="46.500000" font-size="10" fill="#333333" font-family="sans-serif"><tspan font-weight="bold">MYLU</tspan>  1,074 (34.8%)</text><rect x="174.000000" y="54.500000" width="10" height="10" rx="2" fill="#9B59B6" stroke="#999999" stroke-width="0.5"/><text x="189.000000" y="63.500000" font-size="10" fill="#333333" font-family="sans-serif"><tspan font-weight="bold">MYVO</tspan>  154 (5.0%)</text><rect x="174.000000" y="71.500000" width="10" height="10" rx="2" fill="#E15759" stroke="#999999" stroke-width="0.5"/><text x="189.000000" y="80.500000" font-size="10" fill="#333333" font-family="sans-serif"><tspan font-weight="bold">LANO</tspan>  152 (4.9%)</text><rect x="174.000000" y="88.500000" width="10" height="10" rx="2" fill="#8338EC" stroke="#999999" stroke-width="0.5"/><text x="189.000000" y="97.500000" font-size="10" fill="#333333" font-family="sans-serif"><tspan font-weight="bold">LABO</tspan>  124 (4.0%)</text><rect x="174.000000" y="105.500000" width="10" height="10" rx="2" fill="#F28E2B" stroke="#999999" stroke-width="0.5"/><text x="189.000000" y="114.500000" font-size="10" fill="#333333" font-family="sans-serif"><tspan font-weight="bold">EPFU</tspan>  65 (2.1%)</text><rect x="174.000000" y="122.500000" width="10" height="10" rx="2" fill="#F94144" stroke="#999999" stroke-width="0.5"/><text x="189.000000" y="131.500000" font-size="10" fill="#333333" font-family="sans-serif"><tspan font-weight="bold">MYSE</tspan>  56 (1.8%)</text><rect x="174.000000" y="139.500000" width="10" height="10" rx="2" fill="#06D6A0" stroke="#999999" stroke-width="0.5"/><text x="189.000000" y="148.500000" font-size="10" fill="#333333" font-family="sans-serif"><tspan font-weight="bold">LACI</tspan>  52 (1.7%)</text><rect x="174.000000" y="156.500000" width="10" height="10" rx="2" fill="#4E79A7" stroke="#999999" stroke-width="0.5"/><text x="189.000000" y="165.500000" font-size="10" fill="#333333" font-family="sans-serif"><tspan font-weight="bold">MYEV</tspan>  8 (0.3%)</text><text x="86.000000" y="196.000000" font-size="11" font-weight="bold" fill="#2c3e50" text-anchor="middle" font-family="sans-serif">Total bats: 3,084</text></svg>
